<svg width="398" height="428" viewBox="0 0 398 428" fill="none" xmlns="http://www.w3.org/2000/svg">
<path fill-rule="evenodd" clip-rule="evenodd" d="M191.685 42.0227C219.456 49.521 234.947 77.2358 260.215 91.0047C291.614 108.115 337.214 101.725 356.54 131.857C376.243 162.574 359.824 202.526 354.959 238.717C348.87 284.015 356.505 336.271 324.664 368.993C291.706 402.864 236.249 422.11 191.685 406.509C147.571 391.066 136.741 334.795 112.537 294.733C98.4505 271.417 95.0674 244.653 80.1359 221.872C56.3206 185.537 -2.30218 166.551 0.069909 123.142C2.2913 82.4903 52.3832 60.832 89.8015 44.9913C121.885 31.409 158.056 32.9425 191.685 42.0227Z" fill="#D0EBEF"/>
<g clip-path="url(#clip0_301_30)">
<path d="M175.956 428.345C236.875 428.345 286.26 424.702 286.26 420.208C286.26 415.714 236.875 412.071 175.956 412.071C115.037 412.071 65.6523 415.714 65.6523 420.208C65.6523 424.702 115.037 428.345 175.956 428.345Z" fill="#E1E1E0"/>
<path d="M208.482 403.255L206.027 415.488L261.43 420.072C261.43 420.072 255.208 412.776 218.877 408.273V397.902" fill="#EE9A04"/>
<path d="M129.611 398.915L125.106 406.058C125.106 406.058 98.8161 405.244 83.2407 419.051C93.2806 418.544 134.103 413.192 134.103 413.192L138.595 396.374" fill="#EE9A04"/>
<path d="M245.033 63.6438C245.033 63.6438 258.73 59.123 260.988 66.9711C263.247 74.8192 258.337 82.0977 244.247 83.9331C241.792 86.6456 242.099 88.5082 242.099 88.5082C242.099 88.5082 265.652 86.1935 267.948 75.416C270.243 64.6384 262.351 53.0199 244.247 59.6745" fill="#EE9A04"/>
<path d="M192.906 73.4358C192.906 73.4358 180.731 76.2658 181.013 81.5733C181.295 86.8807 196.969 92.9747 209.034 87.6944C211.697 90.4069 211.317 89.7197 211.317 89.7197C211.317 89.7197 205.106 96.1393 189.911 92.3418C174.717 88.5443 174.127 79.2496 179.577 74.3852C185.026 69.5208 196.502 69.3219 196.502 69.3219" fill="#EE9A04"/>
<path d="M205.855 157.532C205.855 157.532 194.502 117.242 193.348 98.0199C195.644 90.199 199.657 89.566 197.656 86.6094C195.656 83.6528 183.603 83.2279 183.026 84.9187C182.714 86.2469 182.714 87.6049 183.026 88.9331L179.589 88.0923C179.589 88.0923 179.135 93.1284 186.475 98.038C181.885 112.378 180.424 126.582 189.016 134.982C185.861 161.383 189.593 173.002 189.593 173.002" fill="#613B1D"/>
<path d="M259.553 153.843L263.235 93.7975C263.235 93.7975 253.182 88.0923 250.384 83.6528C247.586 79.2134 259.553 75.416 259.553 75.416L265.235 81.3744L266.954 78.2098C269.148 82.7167 269.148 87.6451 266.954 92.1519C280.099 114.331 277.325 123.933 273.594 128.101C283.916 147.486 280.013 167.107 280.013 167.107" fill="#613B1D"/>
<path d="M196.907 258.924C196.011 260.253 180.706 300.687 155.962 344.114C131.218 387.541 121.313 400.787 121.313 400.787C121.313 400.787 132.114 407.116 144.719 402.116C144.719 402.116 162.381 354.638 178.57 331.808C194.759 308.978 216.963 285.778 216.963 285.778C221.986 286.923 227.403 286.685 232.207 285.109C240.099 282.459 223.897 282.459 223.897 282.459L228.733 345.1C228.733 345.1 221.995 344.114 227.395 349.747C219.295 368.969 200.062 403.996 200.062 403.996C200.062 403.996 218.779 412.975 222.535 403.996C237.963 367.116 241.903 342.758 241.903 342.758C241.903 342.758 264.842 262.875 263.492 255.253" fill="#422738"/>
<path d="M190.513 272.477C190.513 272.477 200.332 211.899 192.968 193.553C180.866 176.799 177.196 168.888 177.196 168.888L205.83 157.532C205.83 157.532 213.33 175.615 220.927 179.901C228.525 184.186 250.912 175.579 250.912 175.579L259.503 153.879L293.428 160.66C293.428 160.66 278.7 183.318 276.183 197.098C273.667 210.877 265.64 267.921 265.64 267.921C265.64 267.921 252.863 288.716 224.965 285.751C197.067 282.785 190.513 272.477 190.513 272.477Z" fill="#C5BA9F"/>
<path d="M230.746 191.157C229.521 191.182 228.301 191.028 227.157 190.704C226.013 190.379 224.968 189.891 224.081 189.268C219.368 185.931 219.516 179.439 219.516 179.168C219.519 179.095 219.56 179.026 219.631 178.976C219.702 178.925 219.797 178.897 219.896 178.897C219.995 178.899 220.089 178.93 220.157 178.982C220.226 179.035 220.264 179.104 220.264 179.177C220.264 179.241 220.129 185.705 224.597 188.87C225.511 189.505 226.601 189.987 227.791 190.283C228.982 190.58 230.245 190.684 231.495 190.588C243.02 190.054 246.702 178.59 246.702 178.481C246.71 178.445 246.729 178.411 246.756 178.381C246.784 178.351 246.819 178.325 246.861 178.306C246.902 178.286 246.949 178.273 246.998 178.267C247.046 178.262 247.096 178.264 247.144 178.273C247.239 178.29 247.321 178.334 247.373 178.394C247.426 178.455 247.445 178.528 247.426 178.599C247.426 178.716 243.621 190.579 231.47 191.139L230.746 191.157Z" fill="#DFDCC9"/>
<path d="M244.247 179.756C244.247 179.756 239.866 189.874 229.998 188.065C220.13 186.257 221.222 177.676 221.222 177.676L244.247 179.756Z" fill="#512D14"/>
<path d="M239.804 143.58C239.804 143.58 245.708 142.333 246.555 139.81C247.402 137.288 245.192 132.758 241.424 131.618C226.205 135.651 212.876 138.77 205.831 143.436C209.599 157.902 213.993 165.949 213.993 165.949" fill="#2C1824"/>
<path d="M246.494 140.018C246.494 140.018 253.944 168.716 253.944 173.734C253.944 178.752 236.883 185.353 226.058 184.078C215.232 182.803 209.034 145.353 209.034 145.353C209.034 145.353 239.043 139.548 246.494 140.018Z" fill="#613B1D"/>
<path d="M215.318 162.658C215.318 162.658 212.863 159.485 209.034 161.754C205.205 164.024 212.078 175.262 216.963 169.186" fill="#613B1D"/>
<path d="M213.759 171.239C213.637 171.248 213.513 171.248 213.391 171.239C210.936 171.004 208.862 168.526 208.027 166.32C207.193 164.114 207.475 162.351 208.801 161.555C209.278 161.228 209.848 160.983 210.471 160.839C211.093 160.695 211.751 160.656 212.397 160.723C213.759 160.987 214.924 161.637 215.637 162.532C215.661 162.563 215.677 162.597 215.683 162.632C215.69 162.667 215.686 162.703 215.674 162.738C215.661 162.772 215.64 162.804 215.61 162.833C215.581 162.861 215.544 162.885 215.502 162.902C215.46 162.92 215.414 162.932 215.366 162.936C215.318 162.941 215.269 162.939 215.222 162.929C215.176 162.92 215.132 162.904 215.094 162.883C215.055 162.861 215.023 162.834 214.999 162.803C214.382 162.049 213.399 161.496 212.249 161.257C211.712 161.207 211.165 161.245 210.65 161.368C210.134 161.492 209.662 161.698 209.267 161.971C208.199 162.613 208.04 164.213 208.739 166.157C209.537 168.264 211.427 170.488 213.489 170.678C214.618 170.787 215.686 170.244 216.643 169.051C216.668 169.02 216.7 168.993 216.738 168.971C216.777 168.949 216.82 168.933 216.867 168.924C216.914 168.915 216.963 168.913 217.011 168.917C217.059 168.922 217.105 168.933 217.147 168.951C217.232 168.989 217.294 169.05 217.32 169.121C217.345 169.192 217.331 169.267 217.282 169.331C216.018 170.886 214.79 171.239 213.759 171.239Z" fill="#2C1824"/>
<path d="M232.329 150.534C232.329 150.534 231.679 147.74 229.641 147.007C227.604 146.275 221.467 150.877 221.234 152.188C221.001 153.499 224.069 155.317 224.069 155.317L232.329 150.534Z" fill="#2C1824"/>
<path d="M237.288 150.362C237.288 150.362 236.233 146.528 238.356 146.184C240.479 145.841 246.506 147.486 246.948 148.273C247.39 149.06 246.236 151.121 246.236 151.121L237.288 150.362Z" fill="#2C1824"/>
<path d="M237.03 152.36C237.03 152.36 241.191 166.013 242.836 168.888C238.522 167.16 234.675 164.864 231.482 162.116" fill="#613B1D"/>
<path d="M242.149 166.474C242.129 166.76 242.018 167.039 241.824 167.287C241.63 167.536 241.358 167.747 241.032 167.902C240.815 167.993 240.578 168.054 240.332 168.083C238.67 167.287 237.072 166.421 235.545 165.488C233.951 164.532 232.495 163.456 231.2 162.279C231.17 162.251 231.147 162.218 231.134 162.183C231.121 162.149 231.118 162.113 231.125 162.077C231.132 162.041 231.149 162.007 231.174 161.976C231.2 161.946 231.234 161.919 231.274 161.899C231.311 161.876 231.354 161.86 231.4 161.851C231.446 161.841 231.495 161.839 231.542 161.844C231.589 161.849 231.635 161.861 231.675 161.88C231.716 161.899 231.751 161.924 231.777 161.953C232.752 162.827 233.824 163.641 234.981 164.385C235.963 165.027 237.153 165.76 238.601 166.537C238.854 166.671 239.156 166.745 239.467 166.748C239.778 166.751 240.083 166.683 240.34 166.553C240.596 166.423 240.792 166.238 240.901 166.024C241.009 165.809 241.025 165.574 240.946 165.353C240.59 164.385 240.209 163.318 239.829 162.224C238.282 157.703 236.76 152.749 236.662 152.414C236.647 152.38 236.643 152.345 236.648 152.309C236.653 152.274 236.668 152.24 236.693 152.209C236.717 152.178 236.75 152.152 236.789 152.131C236.828 152.11 236.873 152.096 236.92 152.089C236.968 152.078 237.019 152.075 237.07 152.08C237.12 152.085 237.168 152.097 237.211 152.117C237.254 152.137 237.291 152.163 237.319 152.194C237.347 152.225 237.366 152.26 237.374 152.297C237.374 152.387 239.24 158.373 240.946 163.219C241.375 164.412 241.793 165.534 242.149 166.474Z" fill="#2C1824"/>
<path d="M216.963 167.333C214.287 167.08 214.263 166.637 214.251 166.492C214.251 166.166 214.668 165.967 215.392 165.805C213.649 164.467 212.741 164.376 212.348 164.449C211.955 164.521 211.734 164.937 211.722 164.946C211.712 164.981 211.692 165.014 211.665 165.044C211.637 165.073 211.601 165.098 211.56 165.118C211.519 165.137 211.473 165.15 211.425 165.156C211.377 165.163 211.328 165.162 211.28 165.154C211.185 165.135 211.102 165.089 211.05 165.027C210.998 164.965 210.979 164.891 210.998 164.819C211.071 164.608 211.216 164.413 211.421 164.255C211.625 164.097 211.881 163.98 212.164 163.915C213.22 163.716 214.619 164.322 216.362 165.769C216.405 165.803 216.435 165.846 216.45 165.892C216.465 165.937 216.464 165.985 216.448 166.031C216.425 166.075 216.389 166.116 216.342 166.148C216.295 166.181 216.239 166.206 216.177 166.221C215.819 166.276 215.47 166.358 215.134 166.465C215.756 166.631 216.403 166.741 217.061 166.79C217.159 166.79 217.253 166.819 217.322 166.87C217.391 166.921 217.429 166.99 217.429 167.062C217.429 167.133 217.391 167.202 217.322 167.253C217.253 167.304 217.159 167.333 217.061 167.333H216.963Z" fill="#2C1824"/>
<path d="M239.89 169.928H227.494C227.494 169.928 228.439 179.675 232.329 179.756C236.22 179.837 240.013 175.931 239.89 169.928Z" fill="#2C1824"/>
<path d="M237.779 169.928H227.494C227.494 169.928 227.616 171.257 227.985 172.939C231.072 173.053 234.165 172.833 237.165 172.288L237.779 169.928Z" fill="#E4E4E4"/>
<path d="M233.201 157.532C233.201 158.49 232.489 159.259 231.618 159.259C230.746 159.259 230.022 158.49 230.022 157.532C230.022 156.573 230.734 155.814 231.618 155.814C232.501 155.814 233.201 156.582 233.201 157.532Z" fill="#2C1824"/>
<path d="M243.02 157.532C243.02 158.49 242.308 159.259 241.424 159.259C240.54 159.259 239.841 158.49 239.841 157.532C239.841 156.573 240.553 155.814 241.424 155.814C242.296 155.814 243.02 156.582 243.02 157.532Z" fill="#2C1824"/>
<path d="M228.832 175.949C229.568 177.966 230.685 179.72 232.33 179.756C233.559 179.767 234.751 179.445 235.68 178.852C234.011 174.973 230.746 175.407 228.832 175.949Z" fill="#CC521A"/>
<path d="M187.616 63.5895C187.616 63.5895 206.199 46.0579 241.792 51.3382C251.501 79.5118 243.093 97.387 233.716 99.9186C224.339 102.45 201.952 94.4304 187.616 63.5895Z" fill="#EE9A04"/>
<path d="M229.998 99.0778C229.998 99.0778 234.907 110.904 232.342 113.644C229.777 116.383 217.724 120.407 219.737 123.996C221.75 127.586 260.154 118.716 259.013 114.702C257.871 110.687 244.493 113.291 240.811 110.127C237.129 106.962 233.692 97.17 233.692 97.17" fill="#EE9A04"/>
<path d="M230.292 283.128C209.549 283.128 190.672 271.573 190.464 271.447C190.396 271.394 190.357 271.325 190.357 271.252C190.357 271.18 190.396 271.11 190.464 271.058C190.497 271.032 190.537 271.012 190.581 270.998C190.626 270.984 190.673 270.977 190.722 270.977C190.77 270.977 190.817 270.984 190.862 270.998C190.906 271.012 190.946 271.032 190.979 271.058C191.213 271.194 214.005 285.136 236.822 282.197C248.469 280.696 258.202 275.081 265.726 265.497C265.777 265.437 265.858 265.393 265.951 265.374C266.045 265.356 266.144 265.364 266.23 265.398C266.273 265.416 266.311 265.44 266.342 265.469C266.372 265.498 266.395 265.531 266.407 265.566C266.42 265.602 266.423 265.639 266.415 265.675C266.408 265.712 266.391 265.746 266.365 265.778C258.73 275.506 248.825 281.212 236.908 282.74C234.722 283.012 232.508 283.142 230.292 283.128Z" fill="#DFDCC9"/>
<path d="M179.111 172.694C179.045 172.696 178.981 172.685 178.924 172.661C178.868 172.637 178.822 172.601 178.791 172.559C178.766 172.528 178.748 172.494 178.741 172.459C178.734 172.423 178.737 172.387 178.749 172.352C178.762 172.317 178.784 172.285 178.815 172.256C178.845 172.228 178.883 172.205 178.926 172.188L207.058 160.38C207.1 160.362 207.146 160.35 207.194 160.346C207.242 160.341 207.291 160.343 207.337 160.353C207.384 160.362 207.428 160.378 207.466 160.4C207.505 160.421 207.537 160.448 207.561 160.479C207.585 160.51 207.601 160.544 207.607 160.58C207.614 160.615 207.61 160.651 207.598 160.685C207.585 160.72 207.564 160.752 207.534 160.78C207.505 160.808 207.468 160.832 207.426 160.85L179.295 172.694C179.234 172.707 179.171 172.707 179.111 172.694Z" fill="#DFDCC9"/>
<path d="M291.28 164.43H291.157L258.644 156.085C258.598 156.074 258.556 156.056 258.519 156.033C258.483 156.009 258.453 155.981 258.431 155.949C258.409 155.917 258.396 155.882 258.393 155.847C258.39 155.811 258.396 155.775 258.411 155.741C258.445 155.672 258.513 155.616 258.603 155.584C258.692 155.551 258.795 155.546 258.89 155.57L291.403 163.915C291.479 163.941 291.541 163.984 291.58 164.039C291.619 164.093 291.633 164.156 291.619 164.216C291.605 164.277 291.564 164.333 291.503 164.375C291.442 164.417 291.363 164.443 291.28 164.449V164.43Z" fill="#DFDCC9"/>
<path d="M190.243 68.4991L189.776 68.1917C210.396 51.1574 242.971 55.642 243.29 55.6872L243.179 56.1393C242.836 56.0579 210.593 51.6547 190.243 68.4991Z" fill="#FFBC50"/>
<path d="M189.175 66.4105L188.66 66.1573C188.807 65.9946 203.535 50.208 242.664 53.8156L242.59 54.2676C203.867 50.6962 189.322 66.2477 189.175 66.4105Z" fill="#FFBC50"/>
<path d="M201.498 84.7559L201.044 84.4485C201.179 84.34 214.95 73.7794 246.089 74.4394V74.8915C215.232 74.2586 201.633 84.6564 201.498 84.7559Z" fill="#FFBC50"/>
<path d="M222.572 99.2134L222.204 98.8517C222.265 98.8517 228.77 95.3978 240.897 94.0687L240.995 94.5118C229.016 95.8409 222.633 99.1863 222.572 99.2134Z" fill="#FFBC50"/>
<path d="M221.283 123.544L221.025 123.128C221.222 123.056 241.167 116.392 256.754 114.087L256.877 114.539C241.363 116.835 221.48 123.472 221.283 123.544Z" fill="#FFBC50"/>
<path d="M169.022 69.2948C165.978 69.0688 162.958 68.7523 159.951 68.3906C156.944 68.029 153.937 67.6763 150.942 67.2876C147.948 66.8988 144.953 66.4648 141.97 65.9856L137.515 65.2622C136.03 64.982 134.545 64.7469 133.072 64.4395C134.594 64.5389 136.103 64.7017 137.613 64.8282L142.142 65.3075C145.161 65.6239 148.156 66.0127 151.151 66.4105C154.146 66.8084 157.141 67.2333 160.111 67.7125C163.081 68.1917 166.064 68.7161 169.022 69.2948Z" fill="#EE9A04"/>
<path d="M181.541 55.9313C178.927 54.6383 176.386 53.2188 173.858 51.8897C171.329 50.5606 168.85 49.0868 166.371 47.6582C163.891 46.2297 161.461 44.774 159.006 43.2731L155.422 41.0127C154.195 40.2441 153.054 39.4846 151.9 38.689C153.225 39.3309 154.49 40.009 155.791 40.6691L159.596 42.7306C162.124 44.1049 164.603 45.5244 167.083 46.953C169.562 48.3816 171.992 49.8463 174.447 51.3472C176.901 52.8481 179.197 54.349 181.541 55.9313Z" fill="#EE9A04"/>
<path d="M205.855 44.7378C204.407 42.2604 203.094 39.7559 201.793 37.2423C200.492 34.7288 199.252 32.2062 198.037 29.6745C196.822 27.1429 195.643 24.6022 194.539 22.0434L192.882 18.2007C192.379 16.9078 191.826 15.6239 191.348 14.3219C192.084 15.5606 192.747 16.8083 193.446 18.0561L195.423 21.8083C196.736 24.3219 197.963 26.8535 199.178 29.3762C200.393 31.8988 201.572 34.4575 202.676 37.0163C203.781 39.5751 204.886 42.1338 205.855 44.7378Z" fill="#EE9A04"/>
<path d="M233.692 44.7378C233.888 42.5498 234.207 40.3888 234.551 38.2279C234.895 36.0669 235.312 33.906 235.778 31.7541C236.245 29.6022 236.687 27.4593 237.239 25.3165L238.061 22.1067C238.38 21.0398 238.663 19.9729 239.019 18.915C238.933 20 238.773 21.085 238.65 22.17L238.16 25.4159C237.828 27.5859 237.399 29.7378 236.932 31.8897C236.466 34.0416 236.012 36.1935 235.459 38.3273C234.907 40.4612 234.428 42.6131 233.692 44.7378Z" fill="#EE9A04"/>
<path d="M255.171 50.3436C257.024 48.7432 258.976 47.2061 260.94 45.6781C262.903 44.1501 264.916 42.6673 266.941 41.1573C268.967 39.6474 271.016 38.2278 273.078 36.8174L276.245 34.6926C277.337 34.0054 278.393 33.3002 279.51 32.6401C278.589 33.4448 277.62 34.2134 276.674 35.009L273.741 37.3056C271.79 38.8336 269.764 40.3164 267.739 41.8264C265.714 43.3363 263.652 44.7559 261.541 46.1664C259.43 47.5769 257.38 49.0054 255.171 50.3436Z" fill="#EE9A04"/>
</g>
<defs>
<clipPath id="clip0_301_30">
<rect width="398" height="428" fill="white"/>
</clipPath>
</defs>
</svg>
