<svg width="41" height="41" viewBox="0 0 41 41" fill="none" xmlns="http://www.w3.org/2000/svg">
    <circle cx="20.5" cy="20.5" r="20.5" fill="#F3F7F6"/>
    <path d="M18.3005 12.9778C18.4375 12.6392 18.6724 12.3493 18.9752 12.1452C19.278 11.9411 19.6348 11.832 20 11.832C20.3652 11.832 20.722 11.9411 21.0248 12.1452C21.3276 12.3493 21.5626 12.6392 21.6995 12.9778C23.055 13.3505 24.2507 14.158 25.1029 15.2761C25.9551 16.3943 26.4166 17.7612 26.4167 19.1671V23.4727L28.096 25.9917C28.1881 26.1297 28.241 26.2902 28.2491 26.4559C28.2571 26.6217 28.22 26.7865 28.1417 26.9329C28.0634 27.0792 27.9469 27.2015 27.8045 27.2868C27.6622 27.3721 27.4993 27.4171 27.3333 27.4171H23.1763C23.0659 28.1808 22.6841 28.8791 22.1007 29.3842C21.5174 29.8893 20.7716 30.1673 20 30.1673C19.2284 30.1673 18.4826 29.8893 17.8993 29.3842C17.316 28.8791 16.9341 28.1808 16.8238 27.4171H12.6667C12.5007 27.4171 12.3379 27.3721 12.1955 27.2868C12.0531 27.2015 11.9366 27.0792 11.8583 26.9329C11.78 26.7865 11.7429 26.6217 11.751 26.4559C11.759 26.2902 11.8119 26.1297 11.904 25.9917L13.5833 23.4727V19.1671C13.5833 16.2118 15.5817 13.7221 18.3005 12.9778ZM18.7038 27.4171C18.7985 27.6853 18.9741 27.9176 19.2063 28.082C19.4385 28.2463 19.716 28.3345 20.0005 28.3345C20.2849 28.3345 20.5624 28.2463 20.7947 28.082C21.0269 27.9176 21.2024 27.6853 21.2971 27.4171H18.7029H18.7038ZM20 14.5838C18.7844 14.5838 17.6187 15.0666 16.7591 15.9262C15.8996 16.7857 15.4167 17.9515 15.4167 19.1671V23.7504C15.4167 23.9315 15.3631 24.1085 15.2627 24.2592L14.3799 25.5838H25.6192L24.7364 24.2592C24.6363 24.1084 24.583 23.9314 24.5833 23.7504V19.1671C24.5833 17.9515 24.1005 16.7857 23.2409 15.9262C22.3814 15.0666 21.2156 14.5838 20 14.5838Z" fill="#2D2D3D"/>
</svg>
