<svg width="100" height="100" viewBox="0 0 100 100" fill="none" xmlns="http://www.w3.org/2000/svg">
    <path d="M50 100C77.6142 100 100 77.6142 100 50C100 22.3858 77.6142 0 50 0C22.3858 0 0 22.3858 0 50C0 77.6142 22.3858 100 50 100Z" fill="#F2F2F2"/>
    <path d="M79.7892 47.9716C80.5277 47.9716 81.1263 47.3729 81.1263 46.6345C81.1263 45.896 80.5277 45.2974 79.7892 45.2974C79.0508 45.2974 78.4521 45.896 78.4521 46.6345C78.4521 47.3729 79.0508 47.9716 79.7892 47.9716Z" fill="#E6DDED"/>
    <path d="M91.4406 36.3199C92.1791 36.3199 92.7777 35.7213 92.7777 34.9828C92.7777 34.2444 92.1791 33.6458 91.4406 33.6458C90.7022 33.6458 90.1035 34.2444 90.1035 34.9828C90.1035 35.7213 90.7022 36.3199 91.4406 36.3199Z" fill="#59B6A6" stroke="#59B6A6" stroke-miterlimit="10"/>
    <path d="M59.2868 15.0719C60.7687 15.0719 61.9701 13.8705 61.9701 12.3886C61.9701 10.9067 60.7687 9.70532 59.2868 9.70532C57.8049 9.70532 56.6035 10.9067 56.6035 12.3886C56.6035 13.8705 57.8049 15.0719 59.2868 15.0719Z" fill="#E6DDED"/>
    <path d="M9.4328 63.4073C10.1713 63.4073 10.7699 62.8087 10.7699 62.0702C10.7699 61.3318 10.1713 60.7332 9.4328 60.7332C8.69434 60.7332 8.0957 61.3318 8.0957 62.0702C8.0957 62.8087 8.69434 63.4073 9.4328 63.4073Z" stroke="#59B6A6" stroke-width="0.5" stroke-miterlimit="10"/>
    <path d="M83.673 69.1012C84.4115 69.1012 85.0101 68.5026 85.0101 67.7641C85.0101 67.0256 84.4115 66.427 83.673 66.427C82.9346 66.427 82.3359 67.0256 82.3359 67.7641C82.3359 68.5026 82.9346 69.1012 83.673 69.1012Z" stroke="#E6DDED" stroke-miterlimit="10"/>
    <path d="M15.4262 33.6367C15.9135 33.6367 16.3085 33.2416 16.3085 32.7544C16.3085 32.2671 15.9135 31.8721 15.4262 31.8721C14.939 31.8721 14.5439 32.2671 14.5439 32.7544C14.5439 33.2416 14.939 33.6367 15.4262 33.6367Z" fill="#62C7D2"/>
    <path d="M49.4539 66.0361L37.793 73.9404L42.1226 61.6792L49.4539 66.0361Z" fill="#6B54A3"/>
    <path d="M62.8707 74.3045L42.123 61.6885L75.6686 23.6223C76.1052 23.1402 76.5782 23.4313 76.4145 24.0498L62.8707 74.3045Z" fill="#DACAE3"/>
    <path d="M76.4505 23.8677L33.2087 55.7033C33.147 55.7451 33.0741 55.7675 32.9995 55.7675C32.925 55.7675 32.8521 55.7451 32.7903 55.7033L16.1631 45.3067L75.6046 23.2219C76.4505 23.0127 76.7962 23.6222 76.4505 23.8677Z" fill="#DACAE3"/>
    <path d="M35.9557 77.0964C35.9557 77.0964 24.695 81.708 29.7614 88.1388C33.609 93.0142 40.6765 84.837 31.4351 83.218C21.9208 81.5534 21.5751 93.5236 22.6576 95.5792" stroke="#59B6A6" stroke-miterlimit="10"/>
    <path d="M33.0088 55.8305L75.8412 23.5038C75.8736 23.4835 75.912 23.4751 75.9499 23.4802C75.9877 23.4852 76.0226 23.5034 76.0485 23.5314C76.0744 23.5595 76.0897 23.5957 76.0917 23.6339C76.0937 23.672 76.0824 23.7096 76.0595 23.7403L42.1229 61.6882L37.8478 73.7858C37.8392 73.8215 37.8188 73.8533 37.7899 73.876C37.7611 73.8988 37.7254 73.9112 37.6886 73.9112C37.6519 73.9112 37.6162 73.8988 37.5873 73.876C37.5584 73.8533 37.538 73.8215 37.5294 73.7858L33.0088 55.8305Z" fill="#B097C8"/>
    <path d="M20.1748 44.3604L39.1852 37.302" stroke="#B097C8" stroke-linecap="round" stroke-linejoin="round"/>
    <path d="M47.5713 34.1278L54.9662 31.3809" stroke="#B097C8" stroke-linecap="round" stroke-linejoin="round"/>
    <path d="M68.9735 49.509L68.1367 52.6016" stroke="#B097C8" stroke-linecap="round" stroke-linejoin="round"/>
    <path d="M66.4724 59.0051L62.5703 73.4676" stroke="#B097C8" stroke-linecap="round" stroke-linejoin="round"/>
    <path d="M75.6687 23.6311L33 55.8305L37.5297 73.7675" stroke="#6B54A3" stroke-width="0.5" stroke-linecap="round" stroke-linejoin="round"/>
</svg>
