<svg width="428" height="571" viewBox="0 0 428 571" fill="none" xmlns="http://www.w3.org/2000/svg">
<path fill-rule="evenodd" clip-rule="evenodd" d="M157.868 7.44831C217.452 -15.9394 288.361 12.6872 339.834 51.0757C391.158 89.3528 419.591 151.105 434.667 213.884C448.911 273.196 436.735 332.942 421.72 392.059C405.672 455.246 405.66 544.454 345.109 566.497C279.962 590.212 222.29 513.779 157.868 488.108C122.718 474.102 89.8309 461.827 53.7826 450.409C-6.97182 431.167 -88.7207 451.254 -125.297 398.423C-160.461 347.632 -144.915 266.678 -107.321 217.71C-71.231 170.702 9.49123 199.268 55.7703 162.575C105.274 123.324 99.268 30.4495 157.868 7.44831Z" fill="#D0EBEF"/>
</svg>
