<svg width="382" height="368" viewBox="0 0 382 368" fill="none" xmlns="http://www.w3.org/2000/svg">
<g clip-path="url(#clip0_245_2391)">
<path d="M255.036 46.7186C225.444 42.1565 194.906 47.1296 172.088 65.6246C149.894 83.6182 139.824 113.736 116.677 130.464C80.9279 156.349 30.1529 147.751 9.41385 194.218C2.01585 210.806 0.108813 229.342 0.371853 247.5C0.675993 270.245 4.38322 293.261 14.2061 313.77C24.029 334.279 40.3868 352.174 61.3149 361.068C92.2057 374.22 128.004 366.353 159.01 353.522C171.8 348.236 184.64 342.014 198.466 341.307C215.876 340.395 232.357 348.245 248.895 353.76C268.738 360.394 290.719 363.731 310.422 356.678C325.843 351.163 338.518 339.729 348.686 326.889C366.853 303.856 378.023 276.089 380.867 246.892C388.75 164.166 346.064 60.7337 255.036 46.7186Z" fill="#D0EBEF"/>
<path opacity="0.7" d="M255.036 46.7186C225.444 42.1565 194.906 47.1296 172.088 65.6246C149.894 83.6182 139.824 113.736 116.677 130.464C80.9279 156.349 30.1529 147.751 9.41385 194.218C2.01585 210.806 0.108813 229.342 0.371853 247.5C0.675993 270.245 4.38322 293.261 14.2061 313.77C24.029 334.279 40.3868 352.174 61.3149 361.068C92.2057 374.22 128.004 366.353 159.01 353.522C171.8 348.236 184.64 342.014 198.466 341.307C215.876 340.395 232.357 348.245 248.895 353.76C268.738 360.394 290.719 363.731 310.422 356.678C325.843 351.163 338.518 339.729 348.686 326.889C366.853 303.856 378.023 276.089 380.867 246.892C388.75 164.166 346.064 60.7337 255.036 46.7186Z" fill="white"/>
<path d="M284.022 176.627C279.369 178.337 268.297 177.449 268.289 177.449C268.28 177.449 271.108 170.331 271.346 169.904C274.084 164.972 282.287 157.023 288.493 158.248C292.973 159.127 295.209 163.796 293.935 167.98C292.661 172.164 287.984 175.173 284.022 176.627Z" fill="#D0EBEF"/>
<path d="M141.043 130.127C147.364 129.831 154.31 138.889 156.299 144.175C156.464 144.635 158.329 152.099 158.214 152.091H158.075C159.184 153.513 160.36 155.05 161.601 156.76C163.878 159.924 166.418 163.525 168.917 167.627C171.665 172.016 174.152 176.564 176.364 181.247C178.872 186.475 180.907 191.916 182.447 197.506L182.496 197.712C182.57 195.862 182.965 190.692 183.039 190.314C184.107 184.765 189.418 174.696 195.698 173.874C200.227 173.315 203.803 177.047 203.918 181.42C204.033 185.793 200.523 190.141 197.21 192.763C193.478 195.714 183.45 198.18 182.652 198.378C184.081 204.105 185.124 209.921 185.776 215.788C186.179 219.207 186.475 222.66 186.721 226.128C186.845 224.484 186.96 223.095 187.001 222.898C188.061 217.349 193.38 207.28 199.66 206.458C204.189 205.899 207.765 209.639 207.88 214.012C207.995 218.385 204.485 222.725 201.18 225.347C197.876 227.97 189.319 230.279 187.058 230.855C187.141 232.186 187.239 233.51 187.313 234.842C187.691 241.228 188.037 247.607 188.571 253.846C188.76 256.041 189.023 258.203 189.278 260.365C189.385 258.943 189.492 257.751 189.524 257.57C190.585 252.021 195.903 241.952 202.183 241.13C206.704 240.571 210.288 244.303 210.403 248.676C210.518 253.049 207.008 257.397 203.696 260.019C200.383 262.642 192.664 264.729 189.985 265.42C190.314 267.623 190.642 269.834 191.062 271.955C191.374 273.402 191.588 274.807 191.982 276.246C192.377 277.684 192.714 279.082 193.075 280.479C193.897 283.142 194.67 285.896 195.5 288.477C196.076 290.277 196.651 291.979 197.227 293.697C197.013 291.51 196.692 287.219 196.7 286.858C197.072 281.901 198.705 277.122 201.443 272.974C201.463 272.421 201.531 271.871 201.649 271.33C202.602 267.056 206.844 264.097 211.176 265.535C217.185 267.532 220.407 278.482 220.358 284.129C220.358 284.466 219.914 288.074 219.601 290.351C219.996 289.044 220.349 287.77 220.769 286.422C221.591 283.759 222.413 281.128 223.383 278.292L224.903 274.182C225.38 272.801 226.054 271.412 226.638 270.007C228.043 266.776 229.622 263.57 231.29 260.381C228.956 259.674 220.728 257.036 217.522 254.257C214.316 251.479 211.044 247.081 211.34 242.626C211.636 238.171 215.385 234.694 219.881 235.458C226.12 236.518 230.97 246.851 231.775 252.441C231.825 252.794 231.948 256.871 231.981 259.115C232.992 257.2 233.995 255.293 235.088 253.361C238.236 247.87 241.59 242.42 244.952 236.962C245.971 235.318 246.966 233.617 247.969 231.948C247.147 231.702 237.283 228.783 233.699 225.668C230.509 222.898 227.213 218.492 227.517 214.037C227.821 209.581 231.553 206.104 236.05 206.869C242.289 207.929 247.138 218.262 247.944 223.851C248.01 224.279 248.182 230.148 248.149 231.636C250.361 227.953 252.522 224.238 254.512 220.522C257.223 215.499 259.604 210.304 261.638 204.97C261.252 204.855 250.952 201.855 247.278 198.665C244.089 195.903 240.801 191.489 241.097 187.034C241.393 182.579 245.141 179.102 249.637 179.866C255.876 180.927 260.718 191.259 261.532 196.857C261.589 197.293 261.778 203.606 261.729 204.756C261.844 204.444 262 204.14 262.115 203.827C264.007 198.423 265.415 192.86 266.324 187.207C266.866 184.091 267.203 181.083 267.475 178.165C265.502 177.803 256.493 176.044 252.868 173.537C249.391 171.137 245.634 167.117 245.47 162.653C245.305 158.19 248.618 154.327 253.164 154.59C259.485 154.96 265.436 164.7 266.85 170.208C266.932 170.504 267.376 173.611 267.672 175.888C267.771 174.556 267.902 173.192 267.976 171.917C268.256 167.142 268.214 162.752 268.149 158.856C268.091 156.645 268.001 154.647 267.894 152.781C266.143 151.409 259.148 145.811 257.117 141.997C255.087 138.183 253.665 132.955 255.547 128.91C257.43 124.866 262.181 122.976 266.094 125.302C271.535 128.59 272.333 139.933 271.067 145.441C270.952 145.918 268.395 153.159 268.297 153.094L268.19 153.011C268.33 154.803 268.461 156.735 268.56 158.848C268.708 162.744 268.847 167.142 268.667 171.942C268.533 177.12 268.1 182.285 267.368 187.412C266.571 193.158 265.264 198.822 263.463 204.337C263.444 204.402 263.419 204.465 263.389 204.526C264.474 203.03 267.664 198.928 267.943 198.641C271.889 194.605 281.917 189.105 287.556 191.925C291.666 193.963 292.57 199.052 290.228 202.751C287.885 206.45 282.591 208.151 278.383 208.505C273.64 208.907 263.915 205.439 263.143 205.159C261.138 210.731 258.763 216.163 256.032 221.418C254.487 224.484 252.827 227.526 251.1 230.559C252.079 229.293 252.975 228.167 253.114 228.019C257.06 223.975 267.088 218.484 272.727 221.303C276.837 223.334 277.733 228.422 275.407 232.129C273.081 235.836 267.762 237.529 263.554 237.883C259.345 238.236 250.936 235.458 248.758 234.685C248.092 235.844 247.443 237.003 246.768 238.162C243.563 243.694 240.332 249.202 237.332 254.701C236.28 256.633 235.31 258.581 234.323 260.529C235.203 259.403 235.967 258.466 236.074 258.326C240.02 254.29 250.048 248.791 255.695 251.61C259.805 253.649 260.701 258.737 258.367 262.436C256.032 266.135 250.722 267.837 246.522 268.19C242.412 268.535 234.718 266.028 232.096 265.132C231.159 267.154 230.213 269.176 229.391 271.174C228.857 272.555 228.249 273.845 227.797 275.284C227.345 276.722 226.843 278.054 226.375 279.394C225.553 282.057 224.731 284.794 223.983 287.408C223.465 289.225 223.004 290.968 222.536 292.719C223.563 290.77 225.668 287.014 225.873 286.726C229.161 282.131 238.203 275.218 244.253 277.109C248.593 278.506 250.278 283.389 248.528 287.4C246.777 291.412 241.795 293.902 237.694 294.889C233.173 295.974 223.424 294.149 222.207 293.91C221.443 296.812 220.728 299.664 220.095 302.311C219.955 302.887 219.84 303.405 219.708 303.955H215.754C215.968 303.133 216.182 302.262 216.412 301.391C217.176 298.44 218.056 295.308 218.985 292.102C216.102 290.734 213.3 289.203 210.592 287.515C207.148 290.803 198.616 294.42 197.514 294.913C198.476 297.749 199.438 300.503 200.383 303.084L200.72 303.988H196.766C195.813 301.202 194.859 298.234 193.906 295.168C192.697 295.341 182.858 296.73 178.386 295.439C174.334 294.264 169.492 291.634 167.898 287.458C166.303 283.282 168.251 278.564 172.649 277.38C178.756 275.736 187.486 283.077 190.568 287.819C190.749 288.099 192.377 291.354 193.371 293.425C192.969 292.118 192.549 290.853 192.171 289.505C191.349 286.841 190.659 284.162 189.878 281.285C189.541 279.879 189.212 278.457 188.875 277.027C188.538 275.596 188.308 274.076 188.012 272.58C187.404 269.111 186.96 265.568 186.582 261.992C184.255 262.683 175.896 265.025 171.728 264.458C167.561 263.891 162.366 262.05 160.154 258.162C157.943 254.274 159.152 249.317 163.319 247.476C169.073 244.919 178.855 250.862 182.611 255.087C182.85 255.35 185.201 258.68 186.458 260.537C186.253 258.384 186.039 256.23 185.899 254.043C185.497 247.739 185.291 241.335 185.077 234.948C185.012 232.992 184.913 231.044 184.831 229.096C184.009 229.351 174.145 232.384 169.459 231.734C165.275 231.192 160.097 229.326 157.886 225.438C155.674 221.55 156.883 216.593 161.05 214.752C166.845 212.195 176.586 218.139 180.343 222.364C180.63 222.684 184.009 227.476 184.814 228.742C184.617 224.443 184.387 220.169 183.992 215.96C183.484 210.275 182.602 204.63 181.354 199.06C180.976 199.183 170.725 202.348 165.9 201.723C161.716 201.172 156.538 199.315 154.335 195.427C152.132 191.539 153.324 186.582 157.499 184.741C163.253 182.184 173.027 188.127 176.792 192.352C177.079 192.681 180.721 197.843 181.313 198.83C181.239 198.509 181.198 198.164 181.115 197.843C179.717 192.29 177.825 186.873 175.46 181.658C174.194 178.765 172.821 176.06 171.424 173.438C169.574 174.26 161.091 177.737 156.694 177.647C152.469 177.556 147.117 176.274 144.495 172.657C141.873 169.04 142.531 163.977 146.468 161.692C151.943 158.511 162.283 163.336 166.484 167.133C166.706 167.339 168.802 169.69 170.298 171.416C169.648 170.257 168.999 169.049 168.358 167.947C165.958 163.837 163.5 160.163 161.305 156.957C160.039 155.14 158.839 153.529 157.729 152.025C155.518 151.852 146.6 151.039 142.794 148.975C138.988 146.912 134.935 143.345 134.27 138.931C133.604 134.516 136.489 130.316 141.043 130.127Z" fill="#D0EBEF"/>
<path d="M171.72 172.304C171.621 172.361 170.15 164.815 170.076 164.33C169.632 158.691 172.098 147.545 177.951 145.145C182.168 143.41 186.606 146.066 187.815 150.258C189.023 154.45 186.845 159.571 184.346 162.966C181.469 166.961 171.728 172.296 171.72 172.304Z" fill="#D0EBEF"/>
<path d="M106.987 347.119L102.203 354.295L92.8569 361.693V364.742H124.825L123.731 354.056V349.272C123.731 349.272 110.686 343.633 106.987 347.119Z" fill="#263238" stroke="#263238" stroke-miterlimit="10"/>
<path d="M124.537 361.906H92.8569V364.734H124.825L124.537 361.906Z" fill="white" stroke="#263238" stroke-miterlimit="10"/>
<path d="M159.776 347.119L164.873 354.295L174.843 361.693V364.742H140.771L141.931 354.056V349.272C141.931 349.272 155.839 343.633 159.776 347.119Z" fill="#263238" stroke="#263238" stroke-miterlimit="10"/>
<path d="M141.076 361.906H174.843V364.734H140.771L141.076 361.906Z" fill="white" stroke="#263238" stroke-miterlimit="10"/>
<path d="M92.7256 198.279C92.7256 198.279 100.189 282.518 100.724 298.514C101.258 314.51 106.321 336.104 106.321 336.104L103.962 339.836L106.363 348.097C106.363 348.097 111.96 346.765 114.895 347.834C117.829 348.902 123.115 350.234 123.115 350.234C123.115 350.234 125.786 343.033 126.049 339.836C126.313 336.638 122.868 328.903 122.868 328.903L122.334 232.671H127.135L139.382 334.501L138.848 340.633L141.248 350.234C141.248 350.234 155.378 347.299 156.439 347.028C157.249 346.906 158.077 347 158.839 347.299C158.839 347.299 160.483 343.83 160.483 342.762C160.483 341.693 158.346 335.569 158.346 335.569L157.812 287.852V197.482L92.7667 196.15L92.7256 198.279Z" fill="#D0EBEF" stroke="#263238" stroke-miterlimit="10"/>
<path d="M155.518 235.483L156.973 267.352L150.767 267.911V271.864L155.28 272.144" stroke="#263238" stroke-linecap="round" stroke-linejoin="round"/>
<path d="M154.433 211.776L155.378 232.359" stroke="#263238" stroke-linecap="round" stroke-linejoin="round"/>
<path d="M151.72 290.779C151.926 296.475 152.378 301.415 153.307 301.761C155.567 302.583 156.126 303.454 156.126 303.454" stroke="#263238" stroke-linecap="round" stroke-linejoin="round"/>
<path d="M151.638 272.991C151.638 272.991 151.49 280.191 151.638 287.392" stroke="#263238" stroke-linecap="round" stroke-linejoin="round"/>
<path d="M115.791 229.827L127.068 230.674" stroke="#263238" stroke-linecap="round" stroke-linejoin="round"/>
<path d="M119.457 202.751L119.737 218.541L124.816 222.216" stroke="#263238" stroke-linecap="round" stroke-linejoin="round"/>
<path d="M124.816 208.39L125.663 227.855" stroke="#263238" stroke-linecap="round" stroke-linejoin="round"/>
<path d="M121.331 298.67L121.709 318.127" stroke="#263238" stroke-linecap="round" stroke-linejoin="round"/>
<path d="M120.016 230.953L121.24 293.861" stroke="#263238" stroke-linecap="round" stroke-linejoin="round"/>
<path d="M142.868 210.93C142.868 210.93 146.821 219.108 154.154 216.568" stroke="#263238" stroke-linecap="round" stroke-linejoin="round"/>
<path d="M103.379 210.93C103.379 210.93 100.551 217.136 96.0381 217.982" stroke="#263238" stroke-linecap="round" stroke-linejoin="round"/>
<path d="M120.131 104.283L111.656 106.848L104.554 197.926L142.013 198.526L143.986 104.875L120.131 104.283Z" fill="white" stroke="#263238" stroke-miterlimit="10"/>
<path d="M117.114 100.724H115.125L114.122 103.322L114.525 125.31L126.921 117.32L139.111 128.91L140.714 102.721C140.714 102.721 141.314 101.521 139.514 100.724C137.713 99.9267 137.113 99.7212 137.113 99.7212L117.114 100.724Z" fill="white" stroke="#263238" stroke-miterlimit="10"/>
<path d="M115.922 94.3124L116.522 103.354C116.522 103.354 122.276 115.947 126.115 117.748C129.954 119.548 138.716 102.754 138.716 102.754L138.116 92.7589H115.717L115.922 94.3124Z" fill="white" stroke="#263238" stroke-miterlimit="10"/>
<path d="M115.922 94.3124C115.922 94.3124 123.115 109.93 127.315 110.514C131.516 111.098 138.314 96.1126 138.314 94.7152C138.314 93.3178 115.922 94.3124 115.922 94.3124Z" fill="#263238" stroke="#263238" stroke-miterlimit="10"/>
<path d="M112.125 80.9302C112.125 80.9302 108.656 78.0861 108.179 82.0317C107.702 85.9773 112.758 89.6106 112.758 89.6106L112.125 80.9302Z" fill="white" stroke="#263238" stroke-miterlimit="10"/>
<path d="M140.319 80.9302C140.319 80.9302 143.796 78.0861 144.273 82.0317C144.75 85.9773 139.694 89.6106 139.694 89.6106L140.319 80.9302Z" fill="white" stroke="#263238" stroke-miterlimit="10"/>
<path d="M111.492 81.3988C111.492 81.3988 113.391 92.4547 114.969 94.5015C116.547 96.5482 121.438 103.659 126.017 104.924C130.595 106.19 137.705 97.3456 139.119 94.3453C140.533 91.345 141.018 78.0861 141.018 78.0861L140.862 70.984C140.862 70.984 140.385 65.7726 138.33 62.9284C136.275 60.0843 127.439 58.1937 121.603 60.446C115.766 62.6983 110.867 72.8747 110.867 74.9297C110.867 76.9847 111.492 81.3988 111.492 81.3988Z" fill="white" stroke="#263238" stroke-miterlimit="10"/>
<path d="M121.915 69.0852C121.915 69.0852 116.983 74.7735 114.813 75.875C113.826 76.3294 112.876 76.8569 111.968 77.4532L112.281 84.0867L109.757 75.0447C109.757 75.0447 106.601 65.452 107.25 61.194C107.9 56.9361 122.243 52.8261 127.299 51.2478C132.354 49.6696 134.245 52.8261 137.557 55.3578C140.87 57.8896 144.347 59.7802 143.878 64.0464C143.47 67.0138 142.729 69.9257 141.667 72.7267C141.667 72.7267 140.845 84.5635 140.845 85.0567C140.845 85.5499 139.423 73.3761 139.423 73.3761C138.617 73.1641 137.89 72.7227 137.329 72.1056C136.769 71.4884 136.4 70.7219 136.267 69.899C135.847 67.8162 135.572 65.7069 135.445 63.5861C135.445 63.5861 133.39 67.8522 131.335 69.899C129.28 71.9458 124.233 73.8446 123.444 73.6884C122.654 73.5323 124.266 69.7428 124.266 69.7428L121.421 72.4308L121.915 69.0852Z" fill="#263238" stroke="#263238" stroke-miterlimit="10"/>
<path d="M123.181 91.1888C123.963 91.8844 124.873 92.4206 125.86 92.767C127.126 93.0794 129.337 91.1888 129.97 90.712" stroke="#263238" stroke-miterlimit="10"/>
<path d="M122.704 95.6112C122.704 95.6112 126.337 98.4471 131.228 95.1344L122.704 95.6112Z" fill="white"/>
<path d="M122.704 95.6112C122.704 95.6112 126.337 98.4471 131.228 95.1344" stroke="#263238" stroke-miterlimit="10"/>
<path d="M120.254 85.5006C120.822 85.5006 121.282 84.7241 121.282 83.7662C121.282 82.8083 120.822 82.0317 120.254 82.0317C119.687 82.0317 119.227 82.8083 119.227 83.7662C119.227 84.7241 119.687 85.5006 120.254 85.5006Z" fill="#263238"/>
<path d="M132.256 85.5006C132.823 85.5006 133.283 84.7241 133.283 83.7662C133.283 82.8083 132.823 82.0317 132.256 82.0317C131.688 82.0317 131.228 82.8083 131.228 83.7662C131.228 84.7241 131.688 85.5006 132.256 85.5006Z" fill="#263238"/>
<path d="M129.806 78.2423C130.823 77.7092 131.984 77.5134 133.121 77.6834C134.257 77.8533 135.31 78.3801 136.127 79.1876" stroke="#263238" stroke-miterlimit="10"/>
<path d="M121.438 78.0861C120.634 77.6097 119.688 77.4311 118.765 77.5813C117.842 77.7316 117.002 78.2012 116.391 78.9081" stroke="#263238" stroke-miterlimit="10"/>
<path d="M132.65 86.7664L136.127 85.9773" stroke="#263238" stroke-miterlimit="10"/>
<path d="M116.703 85.8212L119.547 86.7665" stroke="#263238" stroke-miterlimit="10"/>
<path d="M114.319 123.74L112.519 210.05L91.9691 209.055L90.7279 206.68C90.7279 206.68 87.9331 206.68 87.5303 204.477C87.1275 202.274 90.3251 153.899 90.3251 153.899L72.7261 152.296L84.5218 129.28C84.5218 129.28 88.1221 113.284 88.9195 112.084C89.7168 110.884 114.714 102.286 114.714 102.286L114.319 123.74Z" fill="#263238" stroke="#263238" stroke-miterlimit="10"/>
<path d="M139.916 101.776L136.982 210.28L163.368 210.009L164.437 206.014L167.1 204.148V195.616C167.1 191.35 162.036 160.426 162.036 160.426C162.036 160.426 175.369 158.56 175.632 155.897C175.895 153.233 170.035 112.98 166.837 110.046C163.639 107.111 139.916 101.776 139.916 101.776Z" fill="#263238" stroke="#263238" stroke-miterlimit="10"/>
<path d="M146.534 163.648L150.044 173.759C150.044 173.759 152.074 168.876 151.77 165.802C151.466 162.727 151.457 161.799 150.537 161.642C149.616 161.486 146.706 160.878 146.534 163.648Z" fill="white" stroke="#263238" stroke-miterlimit="10"/>
<path d="M111.459 137.377L122.696 159.703L134.549 153.85L124.545 130.3L111.459 137.377Z" fill="#D0EBEF" stroke="#263238" stroke-miterlimit="10"/>
<path d="M130.949 152.954C130.814 152.598 130.825 152.204 130.979 151.856C131.133 151.509 131.417 151.236 131.771 151.096C131.836 151.088 131.902 151.088 131.968 151.096L124.57 133.76C124.503 133.922 124.4 134.067 124.269 134.184C124.138 134.3 123.982 134.386 123.814 134.434C123.561 134.493 123.296 134.474 123.054 134.381C122.812 134.287 122.604 134.122 122.457 133.908L114.648 138.109C114.749 138.26 114.824 138.426 114.87 138.602C114.979 138.916 114.982 139.258 114.878 139.574C114.774 139.891 114.569 140.164 114.295 140.353L122.096 155.798C122.235 155.643 122.414 155.53 122.614 155.469C122.944 155.406 123.287 155.464 123.579 155.631C123.872 155.798 124.095 156.065 124.208 156.382L130.973 153.044L130.949 152.954ZM124.274 148.959C122.836 149.362 121.282 148.301 120.797 146.583C120.312 144.865 121.076 143.139 122.507 142.736C123.937 142.334 125.499 143.394 125.984 145.112C126.469 146.83 125.704 148.548 124.274 148.959Z" fill="white" stroke="#263238" stroke-miterlimit="10"/>
<path d="M116.268 134.632L122.268 158.889L135.124 155.814L130.595 130.637L116.268 134.632Z" fill="#D0EBEF" stroke="#263238" stroke-miterlimit="10"/>
<path d="M131.812 154.154C131.784 153.966 131.793 153.774 131.84 153.589C131.886 153.404 131.969 153.23 132.083 153.078C132.196 152.925 132.339 152.796 132.503 152.699C132.667 152.601 132.848 152.537 133.036 152.51C133.102 152.502 133.168 152.502 133.234 152.51L129.946 133.974C129.843 134.116 129.71 134.234 129.557 134.319C129.403 134.404 129.233 134.455 129.058 134.467C128.797 134.466 128.542 134.387 128.325 134.24C128.109 134.094 127.94 133.887 127.841 133.645L119.243 136.07C119.311 136.24 119.35 136.421 119.358 136.604C119.394 136.936 119.32 137.269 119.148 137.554C118.976 137.84 118.715 138.06 118.405 138.183L122.556 154.976C122.725 154.858 122.925 154.789 123.131 154.779C123.467 154.787 123.789 154.916 124.037 155.142C124.284 155.369 124.442 155.678 124.479 156.012L131.82 154.261L131.812 154.154ZM126.156 148.762C124.668 148.844 123.386 147.463 123.296 145.679C123.205 143.895 124.331 142.391 125.819 142.309C127.307 142.227 128.581 143.616 128.68 145.4C128.778 147.183 127.677 148.688 126.156 148.762Z" fill="white" stroke="#263238" stroke-miterlimit="10"/>
<path d="M123.378 132.757L121.997 157.705L135.19 158.543L138.248 133.135L123.378 132.757Z" fill="#D0EBEF" stroke="#263238" stroke-miterlimit="10"/>
<path d="M132.51 155.971C132.571 155.594 132.778 155.257 133.086 155.033C133.393 154.808 133.777 154.714 134.154 154.77C134.223 154.787 134.289 154.811 134.352 154.844L136.604 136.136C136.465 136.244 136.303 136.319 136.131 136.356C135.959 136.393 135.78 136.391 135.609 136.349C135.36 136.275 135.139 136.126 134.974 135.924C134.81 135.722 134.711 135.475 134.689 135.215L125.803 134.993C125.819 135.173 125.802 135.354 125.754 135.527C125.691 135.855 125.524 136.153 125.276 136.376C125.027 136.599 124.713 136.734 124.381 136.76L123.427 154.022C123.629 153.965 123.842 153.965 124.044 154.022C124.363 154.131 124.632 154.352 124.801 154.643C124.97 154.935 125.028 155.278 124.964 155.609L132.502 156.086C132.495 156.047 132.498 156.008 132.51 155.971ZM128.713 149.173C127.274 148.811 126.452 147.118 126.888 145.383C127.324 143.649 128.844 142.539 130.291 142.917C131.738 143.295 132.543 144.98 132.116 146.715C131.688 148.449 130.159 149.534 128.713 149.173Z" fill="white" stroke="#263238" stroke-miterlimit="10"/>
<path d="M150.537 157.179C149.083 156.961 147.645 156.653 146.229 156.258C145.613 155.954 141.149 154.409 137.607 152.568C134.064 150.726 131.146 152.568 126.099 153.488C121.051 154.409 119.629 154.721 119.629 155.954C119.629 157.187 122.252 157.491 122.252 157.491C122.252 157.491 119.786 157.795 121.019 159.489C121.745 160.495 122.768 161.248 123.945 161.642C124.627 162.772 125.513 163.764 126.559 164.569C128.096 165.646 129.173 166.574 129.173 166.574C130.137 167.775 131.418 168.681 132.872 169.188C135.025 169.805 147.183 166.106 147.183 166.106C147.183 166.106 150.874 167.183 151.802 165.185C152.731 163.188 150.537 157.179 150.537 157.179Z" fill="white" stroke="#263238" stroke-linecap="round" stroke-linejoin="round"/>
<path d="M122.219 157.491C122.219 157.491 131.45 157.179 134.376 156.258" stroke="#263238" stroke-linecap="round" stroke-linejoin="round"/>
<path d="M123.912 161.642C126.457 162.05 129.029 162.256 131.606 162.259C133.123 162.229 134.607 161.807 135.913 161.034" stroke="#263238" stroke-linecap="round" stroke-linejoin="round"/>
<path d="M127.8 165.498C127.8 165.498 133.184 167.142 136.842 165.958" stroke="#263238" stroke-linecap="round" stroke-linejoin="round"/>
<path d="M155.107 130.834L158.042 153.759L149.772 156.16C149.772 156.16 151.112 163.089 150.594 166.295C150.247 168.768 150.068 171.262 150.06 173.759C150.06 173.759 159.102 170.824 164.988 170.29C170.873 169.756 175.92 167.092 177.515 162.826C179.11 158.56 174.054 143.92 174.054 143.92" fill="#263238"/>
<path d="M155.107 130.834L158.042 153.759L149.772 156.16C149.772 156.16 151.112 163.089 150.594 166.295C150.247 168.768 150.068 171.262 150.06 173.759C150.06 173.759 159.102 170.824 164.988 170.29C170.873 169.756 175.92 167.092 177.515 162.826C179.11 158.56 174.054 143.92 174.054 143.92" stroke="#263238" stroke-miterlimit="10"/>
<path d="M154.014 155.486L158.041 153.759L168.234 151.022" stroke="#6B6B6B" stroke-miterlimit="10"/>
<path d="M158.042 153.759L154.877 126.683" stroke="#6B6B6B" stroke-miterlimit="10"/>
<path d="M105.918 153.233C105.918 153.233 104.077 145.079 103.304 143.534C102.532 141.988 98.3725 146.312 98.0683 147.693C97.7642 149.074 104.685 153.39 105.918 153.233Z" fill="white" stroke="#263238" stroke-miterlimit="10"/>
<path d="M101.899 136.07L97.9204 140.739C97.9204 140.739 99.0301 147.578 99.9179 147.849C100.806 148.121 107.151 143.23 107.151 143.23L101.899 136.07Z" fill="white" stroke="#263238" stroke-miterlimit="10"/>
<path d="M109.289 126.707C109.289 126.707 102.359 133.481 101.891 136.095C101.422 138.709 106.354 143.641 106.971 144.101C107.587 144.561 112.051 141.018 112.199 140.402C112.347 139.785 109.28 135.018 109.28 135.018C110.693 135.71 112.065 136.481 113.39 137.328C113.851 137.788 116.777 141.947 117.854 141.635C118.931 141.323 118.47 139.325 117.854 137.484C117.237 135.643 110.62 129.478 110.62 129.478L115.084 130.554C115.084 130.554 120.32 135.634 121.553 135.634C122.786 135.634 122.169 134.401 121.397 133.325C120.624 132.248 116.933 127.94 116.013 126.864C115.092 125.787 111.549 125.17 111.081 125.17C110.612 125.17 109.289 126.707 109.289 126.707Z" fill="white" stroke="#263238" stroke-linecap="round" stroke-linejoin="round"/>
<path d="M109.289 135.018L107.135 132.864" stroke="#263238" stroke-linecap="round" stroke-linejoin="round"/>
<path d="M104.365 135.478L109.905 142.251" stroke="#263238" stroke-linecap="round" stroke-linejoin="round"/>
<path d="M97.7643 139.999C97.7643 139.999 98.8411 143.69 99.4576 146C100.074 148.31 105.919 153.233 105.919 153.233C105.919 153.233 97.6081 162.004 90.2183 165.851C82.8286 169.698 74.1482 167.766 71.5343 164.692C68.9203 161.618 69.9971 152.691 72.1508 150.841C74.3044 148.992 86.8317 146.616 89.9142 144.923C92.9967 143.23 97.7643 139.999 97.7643 139.999Z" fill="#263238" stroke="#263238" stroke-miterlimit="10"/>
<path d="M97.7643 139.999L77.5103 149.896" stroke="#6B6B6B" stroke-miterlimit="10"/>
<path d="M95.1338 141.298V131.845" stroke="#6B6B6B" stroke-miterlimit="10"/>
<path d="M158.393 349.215C158.393 349.215 155.927 349.913 149.351 345.039C142.775 340.164 135.081 333.202 135.081 333.202C135.081 333.202 142.676 332.183 146.186 330.333C150.05 328.286 154.571 323.453 154.571 323.453C154.571 323.453 169.885 344.34 189.037 342.951C188.705 344.732 187.928 346.399 186.778 347.799C185.628 349.199 184.143 350.285 182.461 350.957C176.493 353.39 158.393 349.215 158.393 349.215Z" fill="#D0EBEF" stroke="#263238" stroke-linejoin="round"/>
<path d="M183.242 345.343C183.242 345.343 166.983 341.077 158.196 331.747C157.773 331.863 157.329 331.883 156.897 331.805C156.465 331.728 156.055 331.556 155.698 331.301C155.341 331.046 155.045 330.715 154.832 330.331C154.618 329.948 154.493 329.522 154.464 329.084C151.392 331.968 147.454 333.757 143.26 334.172C143.26 334.172 143.523 336.038 142.726 336.572C142.726 336.572 155.253 347.505 162.454 348.837C167.452 349.836 172.568 350.113 177.645 349.659C179.837 349.427 181.896 348.493 183.514 346.995C183.514 346.995 180.842 346.412 183.242 345.343ZM167.887 344.743C167.304 346.181 164.402 346.387 161.402 345.138C158.402 343.888 156.47 341.776 157.012 340.345C157.555 338.915 160.498 338.701 163.498 339.951C166.498 341.2 168.463 343.313 167.887 344.743Z" fill="white" stroke="#263238" stroke-miterlimit="10"/>
<path d="M155.927 348.779C155.927 348.779 164.312 352.231 170.929 352.231C174.801 352.253 178.663 351.826 182.437 350.957C182.437 350.957 180.176 352.19 176.502 349.831C174.406 348.483 173.058 345.483 173.058 345.483C167.528 347.37 161.763 348.479 155.927 348.779Z" fill="#D0EBEF" stroke="#263238" stroke-linejoin="round"/>
<path d="M250.112 313.671C250.112 313.671 265.376 308.649 274.303 302.689L283.797 318.307C283.797 318.307 261.094 335.989 255.134 331.336L250.112 313.671Z" fill="#D0EBEF" stroke="#263238" stroke-linejoin="round"/>
<path d="M277.287 317.395C277.307 316.945 277.472 316.513 277.758 316.164C278.044 315.816 278.436 315.57 278.874 315.463L274.657 308.468C274.305 308.588 273.936 308.649 273.564 308.649C273.112 308.673 272.661 308.587 272.25 308.398C271.839 308.209 271.48 307.923 271.205 307.564C263.322 313.079 251.23 315.907 251.23 315.907L253.647 325.401C253.647 325.401 253.277 330.613 259.787 329.306C264.834 328.295 274.328 321.908 278.364 319.121C278.047 318.956 277.78 318.708 277.591 318.405C277.401 318.101 277.297 317.753 277.287 317.395ZM261.02 324.382C258.168 325.031 255.513 324.061 255.085 322.212C254.658 320.362 256.631 318.324 259.483 317.666C262.335 317.009 264.998 317.987 265.426 319.836C265.853 321.686 263.881 323.724 261.02 324.382Z" fill="white" stroke="#263238" stroke-miterlimit="10"/>
<path d="M247.876 306.602L258.299 327.259C258.299 327.259 254.765 329.117 255.134 331.369L245.09 311.641C245.09 311.641 243.783 308.46 247.876 306.602Z" fill="#D0EBEF" stroke="#263238" stroke-linejoin="round"/>
<path d="M245.978 313.375L253.721 328.566C254.05 327.836 254.635 327.251 255.365 326.922L246.758 311.814L245.978 313.375Z" fill="white" stroke="#263238" stroke-miterlimit="10"/>
<path d="M134.761 198.369L134.925 237.965L155.59 237.875L155.656 197.473L134.761 198.369Z" fill="#D0EBEF" stroke="#263238" stroke-miterlimit="10"/>
<path d="M151.061 234.077C151.079 233.781 151.155 233.492 151.286 233.226C151.417 232.961 151.599 232.723 151.823 232.529C152.046 232.335 152.306 232.187 152.588 232.094C152.869 232.001 153.166 231.966 153.461 231.989C153.565 232.011 153.667 232.041 153.765 232.08L153.724 201.937C153.542 202.102 153.324 202.224 153.088 202.293C152.852 202.363 152.603 202.379 152.36 202.34C151.998 202.251 151.669 202.058 151.415 201.785C151.161 201.511 150.992 201.17 150.93 200.802L138.468 201.337C138.509 201.593 138.509 201.854 138.468 202.109C138.426 202.577 138.23 203.018 137.91 203.362C137.59 203.706 137.164 203.933 136.701 204.008V231.956C137.003 231.835 137.333 231.798 137.654 231.849C138.167 231.998 138.611 232.321 138.911 232.762C139.211 233.203 139.348 233.735 139.298 234.266L151.102 234.217C151.061 234.151 151.053 234.11 151.061 234.077ZM144.222 223.671C141.929 223.251 140.416 220.646 140.844 217.843C141.271 215.04 143.499 213.108 145.776 213.535C148.052 213.963 149.59 216.56 149.154 219.363C148.718 222.166 146.491 224.098 144.222 223.671Z" fill="white" stroke="#263238" stroke-miterlimit="10"/>
<path d="M327.988 30.8293L299.169 59.6487L314.212 74.6913L343.787 45.4609L327.988 30.8293Z" fill="#D0EBEF" stroke="#263238" stroke-miterlimit="10"/>
<path d="M313.702 68.666C313.931 68.461 314.199 68.3042 314.49 68.205C314.781 68.1057 315.09 68.066 315.396 68.0882C315.703 68.1105 316.002 68.1942 316.276 68.3344C316.55 68.4746 316.792 68.6685 316.99 68.9044C317.052 68.9975 317.104 69.0966 317.146 69.2003L339.134 47.294C338.88 47.2809 338.632 47.2105 338.408 47.0881C338.185 46.9657 337.992 46.7944 337.844 46.5871C337.647 46.2571 337.55 45.8768 337.566 45.4927C337.582 45.1086 337.71 44.7376 337.934 44.4253L328.498 35.671C328.336 35.8858 328.145 36.0767 327.931 36.2381C327.558 36.5481 327.092 36.724 326.608 36.7374C326.123 36.7508 325.648 36.601 325.259 36.3121L304.816 56.5333C305.123 56.6606 305.387 56.8713 305.58 57.1416C305.85 57.6231 305.943 58.1843 305.84 58.7269C305.738 59.2695 305.448 59.7588 305.021 60.109L313.611 68.7071L313.702 68.666ZM316.332 56.1059C314.968 54.1249 315.781 51.1246 318.141 49.4066C320.5 47.6886 323.525 47.9188 324.881 49.8998C326.237 51.8808 325.423 54.8893 323.064 56.5991C320.705 58.3088 317.664 58.054 316.332 56.0648V56.1059Z" fill="white" stroke="#263238" stroke-miterlimit="10"/>
<path d="M129.426 151.639L169.523 135.782L161.245 114.854L120.236 130.793L129.426 151.639Z" fill="#D0EBEF" stroke="#263238" stroke-miterlimit="10"/>
<path d="M159.182 120.953C157.727 121.274 156.355 120.559 156.116 119.309C156.108 119.192 156.108 119.074 156.116 118.956L125.546 130.941C125.788 131.061 125.999 131.235 126.164 131.448C126.329 131.662 126.444 131.91 126.5 132.174C126.551 132.576 126.485 132.984 126.308 133.349C126.131 133.714 125.852 134.02 125.505 134.229L130.971 146.756C131.229 146.615 131.506 146.513 131.793 146.452C132.284 146.307 132.809 146.331 133.285 146.521C133.76 146.71 134.158 147.053 134.415 147.496L162.766 136.465C162.52 136.214 162.352 135.897 162.281 135.552C162.217 134.97 162.362 134.384 162.69 133.899C163.019 133.414 163.509 133.062 164.073 132.905L159.338 120.945L159.182 120.953ZM151.357 132.042C151.842 134.508 149.795 137.114 146.778 137.796C143.762 138.479 140.934 136.974 140.449 134.508C139.964 132.042 142.011 129.445 145.027 128.754C148.044 128.064 150.872 129.543 151.357 132.042Z" fill="white" stroke="#263238" stroke-miterlimit="10"/>
<path d="M270.95 30.6978C270.95 30.6978 273.416 31.3472 276.588 38.9178C279.761 46.4884 282.803 56.3853 282.803 56.3853C282.803 56.3853 275.75 53.3768 271.788 53.1713C267.415 52.9494 261.061 54.8153 261.061 54.8153C261.061 54.8153 258.595 29.0292 241.423 20.4393C242.618 19.0651 244.143 18.0174 245.854 17.3948C247.565 16.7721 249.407 16.595 251.205 16.88C257.535 17.85 270.95 30.6978 270.95 30.6978Z" fill="#D0EBEF" stroke="#263238" stroke-linejoin="round"/>
<path d="M247.621 21.3106C247.621 21.3106 259.409 33.32 262.195 45.8062C262.617 45.9251 263.008 46.136 263.339 46.4239C263.67 46.7118 263.933 47.0695 264.109 47.4712C264.285 47.8729 264.37 48.3086 264.357 48.747C264.345 49.1854 264.235 49.6156 264.036 50.0066C268.151 49.1137 272.445 49.6049 276.251 51.404C276.251 51.404 276.975 49.6614 277.936 49.6121C277.936 49.6121 272.758 33.8132 267.25 28.9881C263.459 25.5766 259.199 22.7254 254.6 20.5215C252.596 19.6055 250.352 19.3577 248.196 19.8146C248.196 19.8146 250.26 21.623 247.621 21.3106ZM260.51 29.6786C261.735 28.7497 264.324 30.0813 266.264 32.6624C268.204 35.2435 268.812 38.0876 267.579 39.0247C266.346 39.9618 263.765 38.6219 261.825 36.0408C259.885 33.4598 259.302 30.6156 260.51 29.6786Z" fill="white" stroke="#263238" stroke-miterlimit="10"/>
<path d="M272.848 32.3336C272.848 32.3336 267.407 25.1 261.718 21.6887C258.411 19.6865 254.883 18.0729 251.205 16.88C251.205 16.88 253.778 16.9786 255.726 20.8831C256.836 23.119 256.466 26.3823 256.466 26.3823C262.175 27.5995 267.689 29.6023 272.848 32.3336Z" fill="#D0EBEF" stroke="#263238" stroke-linejoin="round"/>
<path d="M58.2325 9.97522L62.2028 24.5246C62.2028 24.5246 42.3597 39.222 12.3813 35.1038L14.0253 19.3789C14.0253 19.3789 25.7799 21.7298 36.507 19.5269C47.2341 17.3239 58.2325 9.97522 58.2325 9.97522Z" fill="#D0EBEF" stroke="#263238" stroke-miterlimit="10"/>
<path d="M55.964 23.8835C56.0054 23.5257 56.1552 23.1891 56.3932 22.9188C56.6311 22.6485 56.946 22.4574 57.2957 22.371L54.953 15.9018C54.6111 16.0163 54.253 16.0746 53.8926 16.0745C53.2724 16.0847 52.6651 15.8976 52.1582 15.5402C48.8702 17.2664 42.6969 20.2749 36.5402 21.549C30.9321 22.5553 25.2124 22.7876 19.5412 22.2395C19.3216 22.4748 19.0513 22.657 18.7508 22.7724C18.4503 22.8878 18.1275 22.9332 17.8068 22.9053L17.0259 31.7171C17.2232 31.7171 17.4287 31.7171 17.6342 31.7171C19.2782 31.7171 20.5687 32.2103 20.5687 32.8186C20.5584 32.9162 20.5256 33.0101 20.4728 33.0928C20.4201 33.1756 20.3487 33.2449 20.2646 33.2954C39.3103 34.0187 52.6431 27.4345 56.6874 25.1329C56.4727 25.0009 56.2942 24.8176 56.168 24.5995C56.0417 24.3814 55.9716 24.1354 55.964 23.8835ZM37.1156 28.4784C34.2057 29.0621 31.6575 28.5689 31.4191 27.377C31.1807 26.1851 33.3426 24.7548 36.2525 24.1712C39.1623 23.5875 41.7105 24.0807 41.9489 25.2726C42.1873 26.4645 40.0254 27.8948 37.1156 28.4784Z" fill="white" stroke="#263238" stroke-miterlimit="10"/>
<path d="M325.95 333.983L329.912 348.532C329.912 348.532 310.077 363.23 280.09 359.111L281.734 343.387C281.734 343.387 293.489 345.738 304.224 343.535C314.96 341.332 325.95 333.983 325.95 333.983Z" fill="#D0EBEF" stroke="#263238" stroke-miterlimit="10"/>
<path d="M323.673 347.899C323.713 347.54 323.862 347.202 324.1 346.93C324.338 346.658 324.654 346.466 325.005 346.379L322.662 339.926C322.319 340.034 321.961 340.089 321.602 340.09C320.969 340.107 320.347 339.923 319.826 339.564C316.612 341.282 310.406 344.291 304.257 345.565C298.649 346.571 292.93 346.804 287.258 346.255C287.039 346.491 286.768 346.673 286.468 346.788C286.167 346.904 285.845 346.949 285.524 346.921L284.784 355.733C284.981 355.733 285.187 355.733 285.401 355.733C287.045 355.733 288.327 356.218 288.327 356.826C288.317 356.924 288.284 357.018 288.231 357.101C288.178 357.183 288.107 357.253 288.023 357.303C307.069 358.035 320.401 351.45 324.454 349.141C324.23 349.016 324.04 348.837 323.904 348.62C323.767 348.403 323.688 348.155 323.673 347.899ZM304.825 352.486C301.915 353.07 299.366 352.577 299.128 351.393C298.89 350.209 301.052 348.763 303.961 348.179C306.871 347.595 309.42 348.097 309.658 349.28C309.896 350.464 307.734 351.911 304.825 352.486Z" fill="white" stroke="#263238" stroke-miterlimit="10"/>
<path d="M118.115 28.5195C118.115 28.5195 133.372 23.4971 142.307 17.5376L151.801 33.1556C151.801 33.1556 129.097 50.8533 123.138 46.2007L118.115 28.5195Z" fill="#D0EBEF" stroke="#263238" stroke-linejoin="round"/>
<path d="M145.282 32.2432C145.303 31.7921 145.47 31.36 145.758 31.0117C146.045 30.6634 146.438 30.4177 146.877 30.3115L142.652 23.3163C142.303 23.4371 141.936 23.4982 141.567 23.4971C141.115 23.5214 140.664 23.4353 140.253 23.2462C139.842 23.0572 139.483 22.7709 139.208 22.4121C131.325 27.9277 119.233 30.7554 119.233 30.7554L121.65 40.2495C121.65 40.2495 121.28 45.461 127.79 44.154C132.829 43.143 142.323 36.756 146.367 33.9694C146.048 33.805 145.78 33.5581 145.589 33.2545C145.398 32.9509 145.292 32.6017 145.282 32.2432ZM129.023 39.2302C126.171 39.8796 123.507 38.9097 123.088 37.0602C122.669 35.2107 124.633 33.1721 127.486 32.5145C130.338 31.8569 133.001 32.8351 133.429 34.6928C133.856 36.5505 131.892 38.5726 129.023 39.2302Z" fill="white" stroke="#263238" stroke-miterlimit="10"/>
<path d="M115.879 21.4503L126.302 42.1072C126.302 42.1072 122.768 43.9649 123.137 46.2172L113.084 26.4892C113.084 26.4892 111.786 23.308 115.879 21.4503Z" fill="#D0EBEF" stroke="#263238" stroke-linejoin="round"/>
<path d="M113.98 28.2236L121.715 43.4142C122.045 42.6842 122.63 42.0997 123.359 41.7702L114.761 26.6618L113.98 28.2236Z" fill="white" stroke="#263238" stroke-miterlimit="10"/>
<path d="M245.747 120.14L216.928 148.959L231.97 163.993L261.554 134.763L245.747 120.14Z" fill="#D0EBEF" stroke="#263238" stroke-miterlimit="10"/>
<path d="M231.469 157.935C231.698 157.73 231.966 157.573 232.258 157.474C232.549 157.375 232.857 157.335 233.164 157.357C233.47 157.38 233.769 157.463 234.043 157.604C234.317 157.744 234.56 157.938 234.757 158.174C234.816 158.267 234.866 158.366 234.905 158.469L256.918 136.588C256.664 136.577 256.416 136.508 256.194 136.385C255.971 136.262 255.78 136.09 255.636 135.881C255.437 135.552 255.34 135.172 255.354 134.788C255.369 134.404 255.495 134.032 255.718 133.719L246.281 124.981C246.122 125.195 245.931 125.384 245.714 125.54C245.343 125.853 244.878 126.031 244.393 126.046C243.908 126.061 243.432 125.912 243.043 125.622L222.6 145.835C222.906 145.966 223.171 146.18 223.364 146.452C223.634 146.933 223.726 147.495 223.624 148.037C223.522 148.58 223.232 149.069 222.805 149.419L231.354 158.009L231.469 157.935ZM234.091 145.375C232.735 143.386 233.549 140.394 235.908 138.676C238.267 136.958 241.284 137.188 242.64 139.169C243.996 141.15 243.191 144.15 240.823 145.868C238.456 147.586 235.464 147.356 234.091 145.375Z" fill="white" stroke="#263238" stroke-miterlimit="10"/>
<path d="M298.429 190.454L337.811 194.564L339.948 174.014L299.794 169.583L298.429 190.454Z" fill="#D0EBEF" stroke="#263238" stroke-miterlimit="10"/>
<path d="M335.682 178.099C335.391 178.049 335.112 177.942 334.862 177.784C334.613 177.626 334.397 177.419 334.228 177.177C334.059 176.934 333.94 176.66 333.878 176.371C333.815 176.082 333.811 175.784 333.866 175.493C333.901 175.391 333.945 175.292 333.997 175.197L304.019 171.983C304.164 172.183 304.263 172.414 304.307 172.657C304.351 172.9 304.34 173.15 304.274 173.389C304.149 173.733 303.928 174.035 303.636 174.257C303.345 174.478 302.995 174.611 302.63 174.638L301.808 187.108C302.068 187.099 302.328 187.127 302.58 187.19C303.042 187.283 303.46 187.528 303.766 187.885C304.073 188.243 304.252 188.692 304.274 189.163L332.033 192.213C331.942 191.901 331.942 191.571 332.033 191.259C332.23 190.76 332.597 190.347 333.069 190.091C333.541 189.836 334.088 189.754 334.614 189.862L335.83 178.124L335.682 178.099ZM324.602 183.853C323.936 186.089 321.182 187.314 318.445 186.582C315.708 185.85 314.023 183.434 314.688 181.198C315.354 178.962 318.116 177.737 320.853 178.469C323.591 179.2 325.268 181.568 324.602 183.812V183.853Z" fill="white" stroke="#263238" stroke-miterlimit="10"/>
<path d="M343.294 227.665C343.294 227.665 345.76 228.315 348.933 235.885C352.106 243.456 355.139 253.353 355.139 253.353C355.139 253.353 348.094 250.344 344.124 250.139C339.759 249.917 333.438 251.783 333.438 251.783C333.438 251.783 330.972 225.997 313.8 217.407C315 216.044 316.526 215.007 318.235 214.395C319.945 213.782 321.782 213.614 323.574 213.905C329.87 214.818 343.294 227.665 343.294 227.665Z" fill="#D0EBEF" stroke="#263238" stroke-linejoin="round"/>
<path d="M319.958 218.27C319.958 218.27 331.753 230.255 334.54 242.774C334.963 242.89 335.354 243.1 335.686 243.387C336.017 243.673 336.281 244.031 336.457 244.432C336.634 244.834 336.718 245.269 336.705 245.708C336.692 246.146 336.581 246.576 336.381 246.966C340.491 246.068 344.782 246.553 348.588 248.347C348.588 248.347 349.319 246.604 350.273 246.555C350.273 246.555 345.103 230.756 339.587 225.931C335.803 222.513 331.549 219.656 326.953 217.448C324.949 216.532 322.704 216.284 320.549 216.741C320.549 216.741 322.596 218.591 319.958 218.27ZM332.846 226.638C334.079 225.709 336.661 227.041 338.6 229.622C340.54 232.203 341.149 235.047 339.916 235.984C338.683 236.921 336.102 235.581 334.162 233C332.222 230.419 331.638 227.583 332.846 226.646V226.638Z" fill="white" stroke="#263238" stroke-miterlimit="10"/>
<path d="M345.184 229.301C345.184 229.301 339.743 222.043 334.063 218.656C330.751 216.664 327.221 215.062 323.541 213.881C323.541 213.881 326.122 213.979 328.062 217.884C329.18 220.12 328.802 223.383 328.802 223.383C334.51 224.588 340.024 226.58 345.184 229.301Z" fill="#D0EBEF" stroke="#263238" stroke-linejoin="round"/>
<path d="M324.24 132.642C324.24 132.642 310.932 141.643 303.961 149.814L290.538 137.369C290.538 137.369 307.545 114.155 314.549 117.008L324.24 132.642Z" fill="#D0EBEF" stroke="#263238" stroke-linejoin="round"/>
<path d="M297.114 136.489C297.218 136.927 297.176 137.387 296.995 137.8C296.814 138.212 296.504 138.554 296.111 138.774L302.079 144.356C302.385 144.146 302.724 143.988 303.082 143.887C303.509 143.74 303.966 143.699 304.413 143.768C304.86 143.837 305.283 144.013 305.646 144.282C311.729 136.826 322.588 130.801 322.588 130.801L317.656 122.326C317.656 122.326 316.587 117.213 310.677 120.246C306.107 122.597 298.709 131.302 295.593 135.125C295.946 135.194 296.274 135.358 296.541 135.598C296.809 135.838 297.007 136.146 297.114 136.489ZM310.85 125.326C313.414 123.913 316.242 124.126 317.154 125.787C318.067 127.447 316.727 129.954 314.162 131.36C311.598 132.766 308.77 132.56 307.849 130.891C306.929 129.223 308.252 126.732 310.825 125.326H310.85Z" fill="white" stroke="#263238" stroke-miterlimit="10"/>
<path d="M328.35 138.832L312.683 121.808C312.683 121.808 315.576 119.055 314.606 117.008L329.665 133.234C329.665 133.234 331.753 135.922 328.35 138.832Z" fill="#D0EBEF" stroke="#263238" stroke-linejoin="round"/>
<path d="M328.301 131.796L316.71 119.301C316.604 120.095 316.216 120.825 315.617 121.356L327.947 133.514L328.301 131.796Z" fill="white" stroke="#263238" stroke-miterlimit="10"/>
</g>
<defs>
<clipPath id="clip0_245_2391">
<rect width="382" height="368" fill="white"/>
</clipPath>
</defs>
</svg>
