<svg width="382" height="380" viewBox="0 0 382 380" fill="none" xmlns="http://www.w3.org/2000/svg">
<g clip-path="url(#clip0_245_2063)">
<path d="M371.115 217.015C359.007 249.426 334.281 284.509 299.486 294.899C246.878 310.599 240.63 352.973 146.462 349.044C132.706 348.538 119.047 346.537 105.724 343.076C99.22 341.358 92.8313 339.23 86.5958 336.706C31.5793 314.422 2.88332 265.381 0.50774 214.072C-2.6323 146.577 44.4519 114.413 75.0549 95.5805C105.658 76.7485 142.541 3.79597 235.139 6.89491C249.28 7.31917 263.325 9.37126 276.996 13.0106C308.158 21.4443 339.829 40.0955 358.242 67.3612C359.623 69.4162 360.944 71.5096 362.204 73.6413C386.848 115.44 387.612 172.824 371.115 217.015Z" fill="#D0EBEF"/>
<path opacity="0.7" d="M371.115 217.015C359.007 249.426 334.281 284.509 299.486 294.899C246.878 310.599 240.63 352.973 146.462 349.044C132.706 348.538 119.047 346.537 105.724 343.076C99.22 341.358 92.8313 339.23 86.5958 336.706C31.5793 314.422 2.88332 265.381 0.50774 214.072C-2.6323 146.577 44.4519 114.413 75.0549 95.5805C105.658 76.7485 142.541 3.79597 235.139 6.89491C249.28 7.31917 263.325 9.37126 276.996 13.0106C308.158 21.4443 339.829 40.0955 358.242 67.3612C359.623 69.4162 360.944 71.5096 362.204 73.6413C386.848 115.44 387.612 172.824 371.115 217.015Z" fill="white"/>
<path d="M311.395 250.84C311.395 250.84 313.039 242.908 310.171 238.978C307.302 235.049 302.074 238.978 302.773 243.91C303.471 248.842 311.395 250.84 311.395 250.84Z" fill="#D0EBEF"/>
<path d="M298.572 285.619C298.572 285.619 301.087 273.289 296.657 267.132C292.226 260.975 284.047 267.132 285.149 274.793C286.25 282.454 298.572 285.619 298.572 285.619Z" fill="#D0EBEF"/>
<path d="M293.814 305.585C293.814 305.585 293.707 292.967 288.101 287.896C282.495 282.824 275.771 290.501 278.442 297.76C281.114 305.018 293.814 305.585 293.814 305.585Z" fill="#D0EBEF"/>
<path d="M305.469 317.323C297.94 317.989 290.254 328.009 290.254 328.009C290.254 328.009 300.685 335.243 307.22 331.051C313.755 326.858 312.999 316.649 305.469 317.323Z" fill="#D0EBEF"/>
<path d="M306.004 336.369C295.236 337.331 284.237 351.642 284.237 351.642C284.237 351.642 299.165 361.982 308.511 355.982C317.857 349.981 316.78 335.407 306.004 336.369Z" fill="#D0EBEF"/>
<path d="M289.415 328.083H289.941C289.941 328.083 289.941 327.483 289.867 326.489C291.191 321.844 292.646 315.975 294.38 308.972C294.618 308.018 294.857 307.04 295.103 306.054C297.849 307.698 305.789 311.89 311.091 308.462C317.626 304.27 316.845 294.077 309.349 294.751C303.899 295.244 298.375 300.604 295.728 303.538C296.838 299.091 298.046 294.315 299.361 289.309C299.583 288.487 299.83 287.591 300.093 286.679C302.723 289.063 309.225 294.159 314.889 292.03C322.155 289.285 323.536 279.158 316.032 278.254C310.623 277.596 304.137 281.665 300.923 284.008C302.567 278.771 304.68 272.738 306.899 266.803C308.494 268.274 312.785 271.735 316.5 270.346C321.153 268.579 322.04 262.126 317.223 261.501C313.722 261.082 309.521 263.737 307.483 265.225C309.266 260.498 311.075 255.879 312.702 251.81C314.544 253.413 318.456 256.257 321.876 254.966C326.537 253.207 327.424 246.746 322.608 246.13C319.55 245.76 315.949 247.774 313.73 249.237C316.114 243.335 317.947 238.987 318.424 237.852C320.339 236.849 326.126 233.685 327.252 231.548C327.576 230.938 327.776 230.27 327.842 229.583C327.908 228.895 327.838 228.201 327.635 227.541C327.433 226.881 327.103 226.267 326.663 225.734C326.224 225.202 325.683 224.761 325.074 224.437C324.464 224.113 323.796 223.913 323.109 223.847C322.421 223.781 321.728 223.851 321.067 224.054C320.407 224.256 319.793 224.586 319.26 225.026C318.728 225.465 318.287 226.006 317.963 226.616C316.878 228.671 317.421 234.794 317.692 237.186L317.38 237.055C317.322 237.195 314.914 242.809 311.79 250.651L311.634 250.782L311.708 250.865C310.015 255.09 308.116 259.907 306.25 264.904C306.57 262.488 306.948 257.284 304.811 254.333C301.975 250.404 296.723 254.333 297.413 259.265C298.046 263.671 304.425 265.751 305.765 266.137C303.299 272.82 300.833 279.626 299.189 285.331L298.909 285.553C298.909 285.553 298.967 285.619 299.074 285.717C298.728 286.868 298.424 287.97 298.145 289.005C296.271 296.124 294.618 302.798 293.164 308.684C291.791 314.2 290.599 319.008 289.514 323.069C288.922 318.959 287.525 313.394 284.237 310.41C278.631 305.338 271.907 313.016 274.578 320.274C276.633 325.847 284.541 327.458 288.141 327.911L287.525 329.9C286.703 332.423 285.133 339.419 283.489 347.162C282.88 341.309 281.064 331.429 275.622 326.513C267.608 319.255 257.965 330.237 261.812 340.66C265.035 349.406 278.343 351.346 282.527 351.724C280.275 362.467 278.162 373.145 278.006 373.967L279.247 374.214C279.321 373.836 286.645 336.731 288.725 330.335C288.938 329.62 289.177 328.872 289.415 328.083Z" fill="#D0EBEF"/>
<path d="M97.635 125.238C97.635 125.238 93.8867 117.109 88.9876 116.048C84.0885 114.988 82.2061 122.624 85.9708 126.299C89.7356 129.973 97.635 125.238 97.635 125.238Z" fill="#D0EBEF"/>
<path d="M109.257 165.574C109.257 165.574 103.413 152.907 95.7685 151.255C88.1239 149.602 85.1976 161.53 91.0666 167.218C96.9357 172.906 109.257 165.574 109.257 165.574Z" fill="#D0EBEF"/>
<path d="M118.11 186.609C118.11 186.609 109.89 175.857 101.966 176.071C94.0423 176.284 93.3107 188.401 100.24 192.445C107.17 196.489 118.11 186.609 118.11 186.609Z" fill="#D0EBEF"/>
<path d="M135.405 187.184C129.544 193.9 129.536 208.762 129.536 208.762C129.536 208.762 142.91 206.468 145.68 197.533C148.45 188.598 141.274 180.46 135.405 187.184Z" fill="#D0EBEF"/>
<path d="M148.097 203.106C139.712 212.724 139.704 233.981 139.704 233.981C139.704 233.981 158.84 230.693 162.802 217.919C166.764 205.145 156.489 193.497 148.097 203.106Z" fill="#D0EBEF"/>
<path d="M128.887 209.526L129.356 209.123C129.356 209.123 128.961 208.614 128.271 207.816C126.388 202.736 123.84 196.514 120.782 189.083L119.516 185.984C122.878 185.162 132.184 182.301 134.444 175.019C137.214 166.083 130.03 157.946 124.169 164.661C119.928 169.519 118.752 178.635 118.415 183.313C116.483 178.586 114.42 173.498 112.308 168.13C111.954 167.226 111.592 166.272 111.231 165.278C114.954 165.179 123.676 164.25 127.021 157.814C131.337 149.537 125.986 139.73 119.122 145.057C114.19 148.904 111.362 157.683 110.17 162.319C108.165 156.491 106.06 149.578 104.104 142.665C106.381 142.665 112.209 142.106 114.412 137.881C117.182 132.562 113.746 126.258 109.348 129.661C106.143 132.127 104.334 137.881 103.594 140.807C102.041 135.291 100.586 129.85 99.3364 125.025C101.909 124.901 107.014 124.153 109.044 120.257C111.806 114.939 108.37 108.642 103.972 112.037C101.178 114.215 99.4433 118.851 98.5473 121.942C96.7389 114.93 95.4812 109.702 95.1524 108.338C96.1059 105.913 98.9172 98.4739 98.4897 95.7202C97.9719 92.4322 95.1113 90.4759 92.0864 91.3965C90.5452 91.9573 89.2484 93.0387 88.4199 94.4541C87.5915 95.8694 87.2834 97.5296 87.5489 99.148C87.9599 101.795 92.3576 106.612 94.1249 108.453L93.7797 108.593C93.8208 108.757 95.4237 115.547 97.8897 124.827C97.8897 124.975 97.8404 125.074 97.8404 125.074H97.9554C99.2542 130.088 100.783 135.809 102.411 141.596C101.128 139.262 98.0952 134.478 94.4126 133.68C89.4806 132.62 87.6393 140.256 91.4041 143.922C94.7743 147.21 101.441 143.774 102.813 143.018C105.016 150.786 107.392 158.587 109.636 164.867C109.579 165.138 109.554 165.294 109.554 165.294H109.743C110.195 166.56 110.647 167.76 111.083 168.878C114.091 176.515 116.993 183.6 119.558 189.847C121.966 195.708 124.054 200.805 125.755 205.178C122.624 202.145 117.873 198.487 113.204 198.602C105.255 198.815 104.548 210.932 111.477 214.976C116.787 218.091 124.432 213.02 127.736 210.471C128.008 211.244 128.263 211.984 128.493 212.691C129.438 215.519 132.603 222.818 136.195 230.775C131.92 226.246 124.046 219.267 116.335 219.448C104.967 219.752 103.956 237.055 113.869 242.875C122.196 247.757 134.567 238.551 138.316 235.477C143.346 246.549 148.443 257.441 148.829 258.279L150.029 257.457C149.848 257.079 132.142 219.217 129.759 212.033C129.471 211.228 129.2 210.397 128.887 209.526Z" fill="#D0EBEF"/>
<path d="M93.837 269.228C93.837 269.228 89.727 262.948 85.5677 262.652C81.4084 262.356 80.7508 268.924 84.31 271.497C87.8693 274.07 93.837 269.228 93.837 269.228Z" fill="#D0EBEF"/>
<path d="M108.329 301.196C108.329 301.196 101.967 291.422 95.4402 290.978C88.9135 290.534 87.9353 300.76 93.4838 304.755C99.0323 308.75 108.329 301.196 108.329 301.196Z" fill="#D0EBEF"/>
<path d="M118.201 317.529C118.201 317.529 110.113 309.629 103.561 310.764C97.0098 311.898 97.8894 322 104.12 324.524C110.351 327.047 118.201 317.529 118.201 317.529Z" fill="#D0EBEF"/>
<path d="M132.586 315.918C128.542 322.189 130.334 334.487 130.334 334.487C130.334 334.487 141.127 330.968 142.335 323.242C143.544 315.515 136.622 309.646 132.586 315.918Z" fill="#D0EBEF"/>
<path d="M145.015 327.557C139.261 336.533 141.801 354.124 141.801 354.124C141.801 354.124 157.238 349.094 158.972 338.038C160.707 326.982 150.793 318.622 145.015 327.557Z" fill="#D0EBEF"/>
<path d="M129.89 335.194L130.227 334.807C130.227 334.807 129.84 334.429 129.166 333.854C127.005 329.883 124.136 325.042 120.716 319.255L119.286 316.846C121.966 315.77 129.323 312.268 130.309 305.963C131.526 298.236 124.555 292.376 120.56 298.639C117.634 303.177 117.765 310.862 118.094 314.767C115.924 311.092 113.598 307.13 111.206 302.946C110.803 302.24 110.384 301.491 109.964 300.711C113.039 300.185 120.141 298.36 122.13 292.63C124.703 285.232 119.08 277.777 114.05 283.021C110.425 286.802 109.159 294.414 108.731 298.376C106.364 293.798 103.799 288.331 101.333 282.849C103.216 282.544 107.975 281.41 109.282 277.637C110.926 272.911 107.326 268.11 104.095 271.472C101.753 273.938 100.947 278.87 100.676 281.394C98.7277 277.021 96.87 272.689 95.2425 268.85C97.3632 268.439 101.498 267.206 102.706 263.729C104.35 258.994 100.742 254.194 97.5194 257.564C95.4644 259.701 94.5931 263.753 94.2314 266.425C91.8969 260.835 90.2118 256.66 89.7844 255.575C90.2776 253.454 91.6996 246.952 91.0174 244.724C90.1954 242.044 87.5814 240.795 85.1976 241.929C84.0016 242.575 83.0662 243.615 82.5507 244.872C82.0351 246.13 81.9712 247.527 82.3699 248.826C83.0275 250.963 87.2526 254.424 88.9459 255.731L88.6747 255.887C88.7322 256.018 90.8941 261.444 94.0095 268.833C94.0095 268.957 94.0095 269.039 94.0095 269.039H94.1081C95.7932 273.026 97.7413 277.571 99.7881 282.191C98.4483 280.415 95.3658 276.823 92.2175 276.61C88.0335 276.33 87.4088 282.89 90.9681 285.454C94.1492 287.748 99.2538 284.114 100.298 283.317C103.06 289.49 105.97 295.647 108.584 300.579C108.584 300.809 108.584 300.941 108.584 300.941H108.781C109.315 301.927 109.825 302.864 110.326 303.736C113.737 309.695 117.001 315.244 119.878 320.069C122.574 324.623 124.925 328.593 126.857 332.004C123.897 329.875 119.524 327.426 115.677 328.091C109.101 329.226 110.006 339.32 116.236 341.852C120.996 343.783 126.717 338.662 129.134 336.155C129.454 336.755 129.758 337.339 130.038 337.898C131.156 340.126 134.674 345.781 138.595 351.929C134.485 348.691 127.153 343.849 120.79 344.959C111.419 346.603 112.677 361.021 121.612 364.638C129.092 367.671 138.208 358.563 140.946 355.596C146.445 364.144 151.977 372.545 152.404 373.186L153.292 372.364C153.103 372.068 133.868 342.879 131.024 337.224C130.597 336.533 130.293 335.884 129.89 335.194Z" fill="#D0EBEF"/>
<path d="M311.749 113.278C311.749 113.278 313.352 105.971 310.615 102.789C307.877 99.6083 302.764 103.768 303.439 108.1C304.113 112.431 311.749 113.278 311.749 113.278Z" fill="#D0EBEF"/>
<path d="M299.172 146.051C299.172 146.051 301.638 134.65 297.397 129.694C293.155 124.737 285.165 131.222 286.209 137.988C287.253 144.753 299.172 146.051 299.172 146.051Z" fill="#D0EBEF"/>
<path d="M294.471 164.546C294.471 164.546 294.421 153.244 289.013 149.38C283.604 145.517 277.028 153.227 279.601 159.433C282.174 165.64 294.471 164.546 294.471 164.546Z" fill="#D0EBEF"/>
<path d="M305.724 173.654C298.416 175.183 290.928 185.096 290.928 185.096C290.928 185.096 301.014 190.308 307.368 185.746C313.722 181.184 313.023 172.133 305.724 173.654Z" fill="#D0EBEF"/>
<path d="M306.201 190.686C295.753 192.864 285.034 207.052 285.034 207.052C285.034 207.052 299.46 214.507 308.543 207.981C317.626 201.454 316.607 188.499 306.201 190.686Z" fill="#D0EBEF"/>
<path d="M290.106 185.277H290.615C290.615 185.277 290.615 184.735 290.558 183.855C291.857 179.523 293.295 174.082 295.005 167.588C295.246 166.7 295.484 165.796 295.72 164.875C298.375 166.026 306.036 168.804 311.215 165.081C317.56 160.519 316.878 151.468 309.571 152.997C304.285 154.099 298.885 159.573 296.328 162.541C297.421 158.431 298.613 153.984 299.912 149.331C300.134 148.55 300.372 147.728 300.636 146.865C303.167 148.682 309.456 152.463 314.93 149.857C321.983 146.503 323.364 137.248 316.097 137.355C310.861 137.429 304.548 141.867 301.425 144.35C303.019 139.418 305.115 133.779 307.285 128.173C308.831 129.299 312.974 131.896 316.582 130.178C321.103 128.033 321.991 122.098 317.33 122.164C313.935 122.213 309.85 125.107 307.869 126.693C309.612 122.23 311.387 117.865 312.982 114.01C314.766 115.235 318.547 117.298 321.86 115.728C326.389 113.574 327.277 107.639 322.608 107.705C319.648 107.746 316.155 109.966 313.993 111.585C316.327 105.995 318.103 101.869 318.588 100.792C320.446 99.6576 326.076 96.1066 327.178 94.0516C328.509 91.5856 327.572 88.8483 325.09 87.9441C323.789 87.5488 322.39 87.6151 321.132 88.1319C319.874 88.6486 318.833 89.5841 318.185 90.78C317.133 92.7528 317.634 98.178 317.881 100.299L317.577 100.217C317.519 100.348 315.177 105.699 312.102 113.106L311.954 113.237L312.02 113.303C310.376 117.298 308.502 121.885 306.669 126.57C306.99 124.367 307.376 119.649 305.321 117.257C302.592 114.076 297.479 118.235 298.145 122.575C298.753 126.455 304.918 127.507 306.217 127.721C303.751 134.017 301.425 140.421 299.748 145.739L299.485 145.986L299.633 146.109C299.304 147.177 299 148.205 298.728 149.175C296.879 155.751 295.251 161.982 293.796 167.448C292.448 172.561 291.273 177.024 290.196 180.797C289.645 177.189 288.314 172.355 285.141 170.111C279.732 166.248 273.156 173.958 275.729 180.164C277.702 184.915 285.363 185.392 288.881 185.359C288.675 186.009 288.47 186.625 288.273 187.217C287.451 189.584 285.913 196.054 284.294 203.164C283.727 197.985 282.001 189.346 276.756 185.598C269.013 180.066 259.618 191.097 263.3 199.983C266.391 207.438 279.28 207.529 283.341 207.381C281.113 217.302 279.017 227.109 278.861 227.89L280.061 227.964C280.135 227.618 287.41 193.44 289.44 187.431C289.645 186.716 289.876 186.017 290.106 185.277Z" fill="#D0EBEF"/>
<g opacity="0.3">
<path d="M250.111 30.1V41.8135C250.111 42.0751 250.007 42.326 249.822 42.511C249.637 42.6959 249.386 42.7999 249.125 42.7999H192.398C192.269 42.801 192.14 42.7762 192.02 42.727C191.899 42.6778 191.79 42.6052 191.698 42.5134C191.607 42.4216 191.534 42.3124 191.485 42.1922C191.436 42.0721 191.411 41.9433 191.412 41.8135V7.28946C191.406 7.15651 191.428 7.02381 191.475 6.89935C191.522 6.77489 191.594 6.66124 191.686 6.56525C191.778 6.46926 191.889 6.3929 192.011 6.34078C192.134 6.28866 192.265 6.26185 192.398 6.26196H249.116C249.378 6.26196 249.629 6.36589 249.814 6.55087C249.999 6.73586 250.103 6.98675 250.103 7.24836V26.8859" stroke="black" stroke-linecap="round" stroke-linejoin="round"/>
<path d="M204.432 15.6739H250.111V23.5651H191.403V15.6739H200.363" stroke="black" stroke-linecap="round" stroke-linejoin="round"/>
<path d="M225.936 29.4835H199.295V38.8543H225.936V29.4835Z" stroke="black" stroke-linecap="round" stroke-linejoin="round"/>
<path d="M237.772 28.9902H228.895V38.8542H237.772V28.9902Z" stroke="black" stroke-linecap="round" stroke-linejoin="round"/>
</g>
<g opacity="0.3">
<path d="M119.24 243.195H104V295.187L105.332 292.926L106.68 295.211H106.803L108.151 292.926L109.499 295.211H109.614L110.962 292.926L112.31 295.211H112.434L113.782 292.926L115.13 295.211H115.245L116.593 292.926L117.941 295.211H118.064L119.404 292.926L120.752 295.211H120.876L122.224 292.926L123.572 295.211H123.687L125.035 292.926L126.383 295.211H126.506L127.854 292.926L129.203 295.211H129.318L130.666 292.926L132.014 295.211H132.137L133.485 292.926L134.833 295.211H134.948L136.296 292.926L137.644 295.211H137.743V243.195H123.046" stroke="black" stroke-linecap="round" stroke-linejoin="round"/>
<path d="M108.349 254.3H133.42" stroke="black" stroke-linecap="round" stroke-linejoin="round"/>
<path d="M108.349 260.465H133.42" stroke="black" stroke-linecap="round" stroke-linejoin="round"/>
<path d="M108.349 266.63H133.42" stroke="black" stroke-linecap="round" stroke-linejoin="round"/>
<path d="M108.349 272.795H133.42" stroke="black" stroke-linecap="round" stroke-linejoin="round"/>
<path d="M130.181 283.687H133.419" stroke="black" stroke-linecap="round" stroke-linejoin="round"/>
<path d="M108.349 283.687H126.852" stroke="black" stroke-linecap="round" stroke-linejoin="round"/>
</g>
<g opacity="0.3">
<path d="M214.214 90.3526C220.479 90.3526 225.557 85.2739 225.557 79.009C225.557 72.7441 220.479 67.6654 214.214 67.6654C207.949 67.6654 202.87 72.7441 202.87 79.009C202.87 85.2739 207.949 90.3526 214.214 90.3526Z" stroke="black" stroke-linecap="round" stroke-linejoin="round"/>
<path d="M214.214 87.6893C219.008 87.6893 222.894 83.803 222.894 79.009C222.894 74.215 219.008 70.3287 214.214 70.3287C209.42 70.3287 205.533 74.215 205.533 79.009C205.533 83.803 209.42 87.6893 214.214 87.6893Z" stroke="black" stroke-linecap="round" stroke-linejoin="round"/>
<path d="M213.449 74.0606V73.3043H214.765V74.0606C215.907 74.2989 216.491 75.1785 216.491 76.5266V76.8471H214.97V76.4197C214.97 75.6881 214.682 75.4086 214.148 75.4086C213.614 75.4086 213.326 75.6881 213.326 76.4197C213.326 78.5322 216.474 78.6309 216.474 81.5572C216.474 82.9464 215.874 83.8424 214.732 84.0807V84.8205H213.416V84.0807C212.257 83.8424 211.674 82.9464 211.674 81.5572V80.8585H213.195V81.6805C213.195 82.4121 213.523 82.6751 214.017 82.6751C214.51 82.6751 214.839 82.4121 214.839 81.6805C214.839 79.568 211.698 79.4693 211.698 76.543C211.756 75.1867 212.323 74.3072 213.449 74.0606Z" fill="black"/>
</g>
<g opacity="0.3">
<path d="M146.39 325.938C152.655 325.938 157.734 320.859 157.734 314.594C157.734 308.329 152.655 303.251 146.39 303.251C140.126 303.251 135.047 308.329 135.047 314.594C135.047 320.859 140.126 325.938 146.39 325.938Z" stroke="black" stroke-linecap="round" stroke-linejoin="round"/>
<path d="M146.39 323.275C151.184 323.275 155.071 319.388 155.071 314.594C155.071 309.8 151.184 305.914 146.39 305.914C141.596 305.914 137.71 309.8 137.71 314.594C137.71 319.388 141.596 323.275 146.39 323.275Z" stroke="black" stroke-linecap="round" stroke-linejoin="round"/>
<path d="M145.634 309.646V308.881H146.949V309.646C148.092 309.876 148.675 310.755 148.675 312.112V312.441H147.187V312.046C147.187 311.314 146.891 311.035 146.365 311.035C145.839 311.035 145.543 311.314 145.543 312.046C145.543 314.15 148.692 314.257 148.692 317.183C148.692 318.573 148.092 319.469 146.949 319.699V320.447H145.634V319.699C144.475 319.444 143.899 318.573 143.899 317.183V316.485H145.42V317.307C145.42 318.038 145.741 318.301 146.242 318.301C146.744 318.301 147.064 318.038 147.064 317.307C147.064 315.194 143.916 315.096 143.916 312.161C143.899 310.772 144.508 309.892 145.634 309.646Z" fill="black"/>
</g>
<g opacity="0.3">
<path d="M120.087 344.844C126.352 344.844 131.43 339.765 131.43 333.5C131.43 327.235 126.352 322.157 120.087 322.157C113.822 322.157 108.743 327.235 108.743 333.5C108.743 339.765 113.822 344.844 120.087 344.844Z" stroke="black" stroke-linecap="round" stroke-linejoin="round"/>
<path d="M120.087 342.181C124.881 342.181 128.767 338.294 128.767 333.5C128.767 328.706 124.881 324.82 120.087 324.82C115.293 324.82 111.406 328.706 111.406 333.5C111.406 338.294 115.293 342.181 120.087 342.181Z" stroke="black" stroke-linecap="round" stroke-linejoin="round"/>
<path d="M119.33 328.552V327.787H120.645V328.552C121.788 328.782 122.372 329.661 122.372 331.018V331.347H120.884V330.952C120.884 330.22 120.588 329.941 120.062 329.941C119.536 329.941 119.24 330.22 119.24 330.952C119.24 333.056 122.388 333.163 122.388 336.089C122.388 337.479 121.788 338.375 120.645 338.605V339.353H119.33V338.605C118.171 338.35 117.596 337.479 117.596 336.089V335.391H119.116V336.213C119.116 336.944 119.437 337.207 119.938 337.207C120.44 337.207 120.76 336.944 120.76 336.213C120.76 334.1 117.612 334.002 117.612 331.067C117.596 329.678 118.204 328.798 119.33 328.552Z" fill="black"/>
</g>
<g opacity="0.3">
<path d="M127.6 38.2049L118.969 25.1022L152.309 3.12195L158.351 12.2872" stroke="black" stroke-linecap="round" stroke-linejoin="round"/>
<path d="M133.223 19.3153L151.438 7.30591L155.252 13.0928" stroke="black" stroke-linecap="round" stroke-linejoin="round"/>
<path d="M125.496 29.4999L123.161 25.9489L124.378 25.1516" stroke="black" stroke-linecap="round" stroke-linejoin="round"/>
<path d="M154.29 35.1142L129.893 41.6738L124.739 22.5129L163.308 12.1475L168.461 31.3083L157.019 34.3826" stroke="black" stroke-linecap="round" stroke-linejoin="round"/>
<path d="M164.749 29.1827L161.163 15.8383L128.449 24.6285L132.034 37.973L164.749 29.1827Z" stroke="black" stroke-linecap="round" stroke-linejoin="round"/>
<path d="M147.41 29.9438C144.87 30.6261 142.478 29.8205 141.993 28.1437C141.508 26.4668 143.242 24.5597 145.782 23.8775C148.322 23.1952 150.714 23.9926 151.207 25.6694C151.7 27.3463 149.958 29.278 147.41 29.9438Z" stroke="black" stroke-linecap="round" stroke-linejoin="round"/>
</g>
<path d="M116.587 140.363L108.252 149.009L125.651 165.782L133.986 157.135L116.587 140.363Z" fill="#D0EBEF" stroke="#263238" stroke-linecap="round" stroke-linejoin="round"/>
<path d="M116.64 142.949L110.838 148.967L125.591 163.19L131.393 157.171L116.64 142.949Z" fill="white" stroke="#263238" stroke-linecap="round" stroke-linejoin="round"/>
<path d="M122.445 151.69C123.596 152.8 123.933 154.312 123.21 155.069C122.487 155.825 120.958 155.537 119.807 154.428C118.656 153.318 118.319 151.814 119.051 151.057C119.782 150.301 121.295 150.589 122.445 151.69Z" fill="white" stroke="#263238" stroke-linecap="round" stroke-linejoin="round"/>
<path d="M123.054 137.683L112.785 143.909L125.315 164.574L135.584 158.347L123.054 137.683Z" fill="#D0EBEF" stroke="#263238" stroke-linecap="round" stroke-linejoin="round"/>
<path d="M122.87 140.881L115.681 145.228L126.337 162.852L133.526 158.505L122.87 140.881Z" fill="white" stroke="#263238" stroke-width="1.00499" stroke-linecap="round" stroke-linejoin="round"/>
<path d="M125.816 150.112C126.638 151.477 126.588 153.022 125.684 153.573C124.78 154.123 123.35 153.482 122.528 152.118C121.706 150.753 121.755 149.208 122.651 148.665C123.547 148.123 124.994 148.78 125.816 150.112Z" fill="#D0EBEF" stroke="#263238" stroke-linecap="round" stroke-linejoin="round"/>
<path d="M133.229 136.914L121.335 138.573L124.673 162.508L136.568 160.849L133.229 136.914Z" fill="#D0EBEF" stroke="#263238" stroke-linecap="round" stroke-linejoin="round"/>
<path d="M131.675 138.982L123.396 140.137L126.227 160.441L134.507 159.286L131.675 138.982Z" fill="white" stroke="#263238" stroke-linecap="round" stroke-linejoin="round"/>
<path d="M130.83 149.446C131.052 151.024 130.386 152.422 129.35 152.57C128.315 152.718 127.287 151.551 127.065 149.972C126.843 148.394 127.509 146.997 128.553 146.849C129.597 146.701 130.608 147.868 130.83 149.446Z" fill="#D0EBEF" stroke="#263238" stroke-linecap="round" stroke-linejoin="round"/>
<path d="M141.342 141.701L129.657 138.928L124.077 162.442L135.762 165.215L141.342 141.701Z" fill="#D0EBEF" stroke="#263238" stroke-linecap="round" stroke-linejoin="round"/>
<path d="M139.142 143.071L131.008 141.141L126.274 161.088L134.408 163.018L139.142 143.071Z" fill="white" stroke="#263238" stroke-linecap="round" stroke-linejoin="round"/>
<path d="M134.545 152.512C134.184 154.058 133.058 155.126 132.03 154.88C131.003 154.633 130.485 153.186 130.855 151.592C131.225 149.997 132.342 148.978 133.37 149.216C134.397 149.454 134.915 150.934 134.545 152.512Z" fill="#D0EBEF" stroke="#263238" stroke-linecap="round" stroke-linejoin="round"/>
<path d="M157.578 219.094C157.578 219.094 154.923 222.473 154.191 238.428C153.46 254.383 164.105 277.333 164.59 284.098C165.075 290.863 165.798 297.151 165.798 297.151C164.521 303.707 164.602 310.455 166.036 316.978C168.453 327.368 175.9 355.16 175.9 355.16C175.9 355.16 170.146 367.243 170.146 367.967C170.146 368.69 167.245 370.145 167.006 372.077C166.842 373.037 166.842 374.018 167.006 374.978H186.093C186.093 374.978 187.301 373.285 187.301 369.413C187.301 365.542 184.646 348.148 184.646 348.148L184.885 288.701V249.788L209.545 313.583C215.078 329.746 221.449 345.61 228.632 361.111C229.133 362.204 232.495 371.016 236.358 373.918C240.222 376.82 243.855 377.543 244.093 373.195C244.332 368.846 241.192 359.418 238.052 356.755C234.912 354.091 230.802 348.296 230.802 347.326C230.802 346.356 219.162 273.412 219.162 273.412L210.745 231.679C210.745 231.679 211.345 227.446 209.841 220.862C208.336 214.277 199.155 215.001 199.155 215.001L160.726 213.307L157.578 219.094Z" fill="white" stroke="#263238" stroke-linecap="round" stroke-linejoin="round"/>
<path d="M219.162 273.412L210.745 231.679C210.745 231.679 211.345 227.446 209.84 220.862C208.336 214.277 199.154 215.001 199.154 215.001L160.726 213.307L157.586 219.111C157.586 219.111 154.931 222.489 154.199 238.444C153.468 254.399 164.104 277.333 164.589 284.098C165.074 290.863 165.798 297.151 165.798 297.151C164.52 303.707 164.602 310.455 166.036 316.978C166.858 320.398 168.181 325.708 169.628 331.289C174.632 331.909 179.688 332.003 184.712 331.569L184.884 288.701V249.788L209.544 313.583C209.544 313.583 212.832 323.028 216.531 332.029C220.477 332.095 224.25 331.667 227.702 329.851C223.831 308.602 219.162 273.412 219.162 273.412Z" fill="#263238" stroke="#263238" stroke-linecap="round" stroke-linejoin="round"/>
<path d="M187.301 369.405C187.301 367.761 186.832 363.774 186.29 359.664C184.334 362.089 180.437 366.512 177.149 367.72C173.565 369.035 171.165 368 170.286 367.482C170.22 367.634 170.173 367.795 170.146 367.958C170.146 368.682 167.244 370.137 167.006 372.068C166.842 373.029 166.842 374.01 167.006 374.97H186.093C186.093 374.97 187.301 373.277 187.301 369.405Z" fill="#263238" stroke="#263238" stroke-linecap="round" stroke-linejoin="round"/>
<path d="M238.044 356.763L237.822 356.557C238.965 359.919 239.811 364.777 236.597 366.668C234.674 367.819 232.487 366.906 230.638 365.402C232.068 368.427 234.082 372.216 236.351 373.918C240.222 376.82 243.847 377.543 244.086 373.195C244.324 368.846 241.184 359.418 238.044 356.763Z" fill="#263238" stroke="#263238" stroke-linecap="round" stroke-linejoin="round"/>
<path d="M173.229 139.829C173.792 142.523 174.214 145.245 174.495 147.983C174.675 150.885 170.327 151.789 170.327 151.789C170.327 151.789 157.816 155.233 157.274 157.773C156.731 160.313 145.856 194.763 145.856 194.763C143.135 189.321 137.357 186.617 134.438 182.071C132.86 179.684 131.408 177.214 130.09 174.673C130.638 173.339 131.003 171.937 131.175 170.506C131.127 169.533 130.815 168.593 130.271 167.785C130.271 167.785 132.803 166.881 132.803 165.615C132.803 164.349 131.159 161.628 130.633 161.077C128.734 159.047 125.553 161.809 125.553 161.809C126.326 160.501 127.306 159.327 128.454 158.332C130.098 157.058 131.742 155.25 131.356 154.526C130.97 153.803 129.548 154.164 127.188 156.335C124.829 158.505 121.747 161.415 121.747 161.415C121.747 161.415 123.021 158.513 123.925 156.335C124.829 154.156 126.827 153.984 126.646 152.71C126.465 151.435 124.106 152.167 122.117 154.707C120.325 157.276 119.26 160.28 119.034 163.404C119.034 165.22 122.659 167.571 124.106 170.473C125.724 174.047 127.057 177.744 128.093 181.529C128.816 184.25 133.715 196.752 135.162 201.257C136.609 205.761 144.771 212.132 147.303 210.496C149.835 208.86 162.173 188.746 162.173 188.746L164.696 199.243L156.008 221.388C166.152 225.853 177.231 227.783 188.288 227.01C206.774 225.736 209.857 220.845 209.857 220.845C209.228 216.787 208.22 212.797 206.848 208.926C205.303 204.389 201.333 195.832 201.333 194.747C201.333 193.662 204.054 183.329 204.054 183.329C204.054 183.329 218.735 202.177 221.636 203.263C224.538 204.348 257.163 201.619 257.163 201.619C258.739 202.407 260.375 203.072 262.054 203.608C264.051 204.15 272.567 204.512 273.833 204.15C275.099 203.789 274.376 202.506 274.376 202.506C274.376 202.506 278.001 202.687 278.001 201.421C278.013 201.069 277.915 200.721 277.72 200.426C277.526 200.132 277.245 199.905 276.916 199.777C277.079 199.801 277.245 199.789 277.404 199.742C277.562 199.696 277.708 199.615 277.832 199.507C277.956 199.398 278.056 199.264 278.123 199.114C278.19 198.963 278.224 198.8 278.223 198.635C278.223 197.361 276.825 197.089 276.825 197.089C276.825 197.089 277.368 196.366 276.283 195.643C275.198 194.919 268.581 192.166 268.581 192.166C268.581 192.166 271.869 191.804 271.869 190.719C271.869 189.634 262.259 189.987 261.183 190.719C260.106 191.45 255.741 195.651 255.741 195.651C255.741 195.651 232.906 193.111 230.908 192.363C228.911 191.615 224.209 190.374 224.209 190.374C224.209 190.374 212.06 159.96 208.591 156.474C205.571 153.43 201.594 151.52 197.33 151.066C194.817 150.755 192.34 150.205 189.932 149.422L187.178 132.028C187.178 132.028 180.66 140.01 173.229 139.829Z" fill="white" stroke="#263238" stroke-linecap="round" stroke-linejoin="round"/>
<path d="M230.859 192.387C228.87 191.664 224.16 190.398 224.16 190.398C224.16 190.398 212.011 159.984 208.542 156.499C205.538 153.456 201.58 151.537 197.33 151.066C194.817 150.755 192.34 150.205 189.932 149.422L187.178 132.028C187.178 132.028 180.66 140.001 173.204 139.821C173.767 142.515 174.19 145.237 174.47 147.975C174.651 150.876 170.302 151.781 170.302 151.781C170.302 151.781 157.792 155.225 157.249 157.765C156.707 160.305 145.831 194.755 145.831 194.755C144.974 193.098 143.864 191.584 142.543 190.267L142.593 190.587L141.845 191.294L134.2 198.478C134.595 199.572 134.924 200.534 135.162 201.282C136.617 205.811 144.771 212.157 147.303 210.521C149.835 208.885 162.173 188.746 162.173 188.746L164.696 199.243L156.008 221.388C166.152 225.853 177.231 227.783 188.288 227.01C206.775 225.736 209.857 220.845 209.857 220.845C209.046 216.255 207.785 211.756 206.092 207.414C204.259 202.991 201.333 195.832 201.333 194.747C201.333 193.662 204.054 183.329 204.054 183.329C204.054 183.329 218.735 202.177 221.636 203.263C222.845 203.715 229.24 203.509 236.268 203.106L237.411 193.448C235.209 193.216 233.022 192.862 230.859 192.387Z" fill="#D0EBEF" stroke="#263238" stroke-linecap="round" stroke-linejoin="round"/>
<path d="M193.894 182.852C189.069 184.989 181.901 188.22 176.862 190.735" stroke="#263238" stroke-linecap="round" stroke-linejoin="round"/>
<path d="M199.089 180.575L196.376 181.759" stroke="#263238" stroke-linecap="round" stroke-linejoin="round"/>
<path d="M184.482 190.102L175.588 193.916" stroke="#263238" stroke-linecap="round" stroke-linejoin="round"/>
<path d="M145.856 194.747C146.865 196.047 147.774 197.421 148.577 198.857" stroke="#263238" stroke-linecap="round" stroke-linejoin="round"/>
<path d="M206.38 172.322L207.013 169.355" stroke="#263238" stroke-linecap="round" stroke-linejoin="round"/>
<path d="M204.037 183.329L205.821 174.961" stroke="#263238" stroke-linecap="round" stroke-linejoin="round"/>
<path d="M157.718 175.767L156.813 173.144" stroke="#263238" stroke-linecap="round" stroke-linejoin="round"/>
<path d="M162.173 188.762L158.408 177.797" stroke="#263238" stroke-linecap="round" stroke-linejoin="round"/>
<path d="M130.271 167.736L129.729 166.47L130.814 165.385" stroke="#263238" stroke-linecap="round" stroke-linejoin="round"/>
<path d="M130.205 160.798L126.202 164.242C126.104 164.432 126.078 164.651 126.129 164.858C126.181 165.065 126.306 165.247 126.481 165.368" stroke="#263238" stroke-linecap="round" stroke-linejoin="round"/>
<path d="M268.564 192.207L265.843 193.292C265.843 193.292 266.386 196.917 261.856 197.648" stroke="#263238" stroke-linecap="round" stroke-linejoin="round"/>
<path d="M276.809 197.13L269.83 195.832" stroke="#263238" stroke-linecap="round" stroke-linejoin="round"/>
<path d="M276.9 199.818L270.373 198.552" stroke="#263238" stroke-linecap="round" stroke-linejoin="round"/>
<path d="M274.36 202.539L269.469 201.816" stroke="#263238" stroke-linecap="round" stroke-linejoin="round"/>
<path d="M270.373 195.108C270.373 195.108 270.373 200.361 268.729 202.901" stroke="#263238" stroke-linecap="round" stroke-linejoin="round"/>
<path d="M189.931 149.43L187.178 132.028C187.178 132.028 180.659 140.001 173.204 139.821C173.767 142.515 174.189 145.237 174.47 147.975C174.568 149.553 173.319 150.539 172.168 151.115C173.812 154.551 178.514 163.445 183.347 162.113C187.457 160.979 189.808 153.943 190.844 149.717C190.26 149.553 189.931 149.43 189.931 149.43Z" fill="white" stroke="#263238" stroke-linecap="round" stroke-linejoin="round"/>
<path d="M187.548 137.042L186.643 132.669C184.917 134.552 179.393 139.977 173.253 139.829C173.816 142.523 174.239 145.245 174.519 147.983C174.519 148.024 174.519 148.065 174.519 148.106C175.697 148.482 176.944 148.586 178.168 148.413C179.392 148.239 180.561 147.791 181.588 147.104C186.051 143.889 187.548 137.042 187.548 137.042Z" fill="#263238" stroke="#263238" stroke-linecap="round" stroke-linejoin="round"/>
<path d="M164.45 110.796C164.45 110.796 155.572 110.245 154.118 117.865C153.613 119.829 153.896 121.913 154.904 123.672C155.913 125.431 157.568 126.728 159.518 127.285C159.302 128.484 159.405 129.718 159.818 130.864C160.231 132.01 160.938 133.026 161.869 133.812C165.157 136.713 173.114 142.328 181.992 140.338C190.869 138.349 198.481 129.283 198.152 123.808C197.823 118.334 195.259 117.281 195.259 117.281C195.259 117.281 199.788 111.305 194.527 104.236C189.266 97.167 166.258 97.8904 162.633 102.592C159.008 107.294 164.45 110.796 164.45 110.796Z" fill="#263238" stroke="#263238" stroke-linecap="round" stroke-linejoin="round"/>
<path d="M171.132 116.772L163.734 122.896C163.734 122.896 165 133.45 168.165 137.692C171.33 141.933 176.903 146.438 180.914 144.958C184.926 143.479 188.855 136.845 188.855 130.096C188.855 123.348 187.589 119.961 187.589 119.961C187.589 119.961 174.93 119.945 171.132 116.772Z" fill="white" stroke="#263238" stroke-linecap="round" stroke-linejoin="round"/>
<path d="M180.067 124.967C180.067 124.967 183.396 124.227 184.753 124.967" stroke="#263238" stroke-linecap="round" stroke-linejoin="round"/>
<path d="M168.963 128.05C169.359 127.292 170.005 126.694 170.791 126.357C171.578 126.02 172.456 125.964 173.278 126.2" stroke="#263238" stroke-linecap="round" stroke-linejoin="round"/>
<path d="M166.866 123.981C167.228 123.108 167.878 122.386 168.709 121.937C169.54 121.488 170.5 121.339 171.428 121.515" stroke="#263238" stroke-linecap="round" stroke-linejoin="round"/>
<path d="M178.333 120.52C179.291 119.996 180.389 119.785 181.473 119.918C182.557 120.051 183.572 120.52 184.375 121.26" stroke="#263238" stroke-linecap="round" stroke-linejoin="round"/>
<path d="M174.265 135.448C174.265 135.448 179.69 138.16 182.649 133.105" stroke="#263238" stroke-linecap="round" stroke-linejoin="round"/>
<path d="M175.621 130.384C175.621 130.384 177.594 132.028 179.443 129.644" stroke="#263238" stroke-linecap="round" stroke-linejoin="round"/>
<path d="M188.288 123.118C188.288 123.118 189.891 119.912 191.371 122.296C192.85 124.679 188.905 129.324 188.905 129.324L188.288 123.118Z" fill="white" stroke="#263238" stroke-linecap="round" stroke-linejoin="round"/>
<path d="M164.277 126.447C164.277 126.447 161.072 125.214 161.318 128.913C161.565 132.612 166.094 132.982 166.094 132.982L164.277 126.447Z" stroke="#263238" stroke-linecap="round" stroke-linejoin="round"/>
<path d="M156.025 88.8566V67.3859C156.025 65.8424 155.412 64.3621 154.32 63.2707C153.229 62.1793 151.748 61.5662 150.205 61.5662H123.811C122.268 61.5683 120.79 62.1825 119.701 63.2736C118.611 64.3648 117.999 65.8439 117.999 67.3859V88.8566C117.999 90.3979 118.611 91.8761 119.701 92.9659C120.791 94.0558 122.269 94.6681 123.811 94.6681H144.509L155.129 104.08L150.608 94.6681C152.08 94.5679 153.458 93.9117 154.464 92.8325C155.47 91.7533 156.028 90.3319 156.025 88.8566Z" fill="#263238"/>
<path fill-rule="evenodd" clip-rule="evenodd" d="M42.2468 82.6903H39.2221L36.5494 78.2471H34.1633V82.6903H31.1387V78.2471H28.1768V76.766H31.1387V74.5444H28.1768V73.0633H31.1387V68.9903H34.1633L36.591 73.0633H39.2221V68.9903H42.2468V73.0633H44.8389V74.5444H42.2468V76.766H44.8389V78.2471H42.2468V82.6903ZM34.1633 76.766H35.6585L34.3221 74.5444H34.1633V76.766ZM39.2221 76.766H38.7979L37.4737 74.5444H39.2221V76.766Z" fill="white"/>
</g>
<defs>
<clipPath id="clip0_245_2063">
<rect width="382" height="380" fill="white"/>
</clipPath>
</defs>
</svg>
