<svg width="403" height="387" viewBox="0 0 403 387" fill="none" xmlns="http://www.w3.org/2000/svg">
<g clip-path="url(#clip0_245_2593)">
<path d="M10.3023 160.668C12.4557 139.449 19.8474 119.099 31.813 101.445C43.7787 83.7909 59.9434 69.3866 78.8543 59.5266C112.341 42.115 148.877 31.3384 186.453 27.7896C288.608 18.2046 317.363 70.5685 334.616 117.82C351.869 165.072 408.05 244.896 402.308 323.442C402.308 323.442 397.835 366.894 381.229 386.661H9.56962C9.56962 386.661 -12.1479 357.284 10.8561 301.733C33.8601 246.183 3.18814 243.618 8.93914 175.296C9.37366 170.082 9.83374 165.217 10.3023 160.668Z" fill="#D0EBEF"/>
<path opacity="0.7" d="M10.3023 160.668C12.4557 139.449 19.8474 119.099 31.813 101.445C43.7787 83.7909 59.9434 69.3866 78.8543 59.5266C112.341 42.115 148.877 31.3384 186.453 27.7896C288.608 18.2046 317.363 70.5685 334.616 117.82C351.869 165.072 408.05 244.896 402.308 323.442C402.308 323.442 397.835 366.894 381.229 386.661H9.56962C9.56962 386.661 -12.1479 357.284 10.8561 301.733C33.8601 246.183 3.18814 243.618 8.93914 175.296C9.37366 170.082 9.83374 165.217 10.3023 160.668Z" fill="white"/>
<g opacity="0.3">
<path d="M102.618 7.54614H45.8579V88.7929H102.618V7.54614Z" stroke="black" stroke-linecap="round" stroke-linejoin="round"/>
<path d="M163.281 7.54614H106.521V88.7929H163.281V7.54614Z" stroke="black" stroke-linecap="round" stroke-linejoin="round"/>
<path d="M223.935 7.54614H167.174V88.7929H223.935V7.54614Z" stroke="black" stroke-linecap="round" stroke-linejoin="round"/>
<path d="M102.618 92.6865H45.8579V173.933H102.618V92.6865Z" stroke="black" stroke-linecap="round" stroke-linejoin="round"/>
<path d="M163.281 92.6865H106.521V173.933H163.281V92.6865Z" stroke="black" stroke-linecap="round" stroke-linejoin="round"/>
<path d="M223.935 92.6865H167.174V173.933H223.935V92.6865Z" stroke="black" stroke-linecap="round" stroke-linejoin="round"/>
<path d="M102.618 177.835H45.8579V259.082H102.618V177.835Z" stroke="black" stroke-linecap="round" stroke-linejoin="round"/>
<path d="M163.281 177.835H106.521V259.082H163.281V177.835Z" stroke="black" stroke-linecap="round" stroke-linejoin="round"/>
<path d="M223.935 177.835H167.174V259.082H223.935V177.835Z" stroke="black" stroke-linecap="round" stroke-linejoin="round"/>
</g>
<path d="M74.9194 220.785C74.9273 220.765 74.9272 220.744 74.9193 220.725C74.9113 220.706 74.896 220.69 74.8768 220.682C74.8576 220.675 74.836 220.675 74.8168 220.683C74.7977 220.691 74.7824 220.706 74.7745 220.725C72.3888 226.432 70.5045 232.336 69.1428 238.37C67.7618 244.404 66.7236 250.511 66.033 256.662L65.5985 261.289C65.5303 262.064 65.4451 262.831 65.3855 263.606L65.2577 265.915C65.1981 267.466 65.0958 269.008 65.0532 270.558L65.0958 275.21L65.1469 277.528C65.1469 278.303 65.2407 279.078 65.2918 279.845C65.4111 281.396 65.5048 282.938 65.6411 284.48C65.9393 287.564 66.4079 290.623 66.8765 293.673C66.8805 293.693 66.8912 293.71 66.9068 293.723C66.9223 293.735 66.9418 293.742 66.9617 293.741C66.9617 293.741 67.0469 293.741 67.0384 293.665C67.0384 292.123 66.9702 290.581 66.9361 289.038C66.9021 287.496 66.7572 285.963 66.7743 284.421C66.7913 282.878 66.7743 281.345 66.7231 279.811V277.502V275.202V270.601L66.8424 265.992L66.8935 263.691C66.8935 262.925 66.9787 262.158 67.0213 261.391L67.3025 256.79C67.8267 250.663 68.6972 244.57 69.9096 238.54C71.0653 232.489 72.7415 226.548 74.9194 220.785Z" fill="#263238"/>
<path d="M75.5756 244.862C75.5824 244.842 75.5808 244.82 75.5712 244.8C75.5616 244.781 75.5448 244.767 75.5245 244.76C75.5041 244.753 75.4819 244.755 75.4628 244.764C75.4436 244.774 75.429 244.791 75.4222 244.811C74.1187 248.642 73.0265 252.541 72.1505 256.492C71.2781 260.46 70.6296 264.473 70.208 268.514C69.799 272.544 69.356 276.582 69.2963 280.629C69.1941 284.687 69.3392 288.747 69.7309 292.787C69.7327 292.805 69.7405 292.821 69.7529 292.833C69.7653 292.846 69.7816 292.853 69.799 292.855C69.8204 292.858 69.8419 292.852 69.8593 292.84C69.8766 292.827 69.8886 292.808 69.8927 292.787C70.3613 288.749 70.6425 284.727 70.9237 280.706C71.2048 276.684 71.2474 272.646 71.5115 268.624C71.7578 264.614 72.23 260.62 72.9259 256.662C73.5955 252.684 74.4801 248.745 75.5756 244.862Z" fill="#263238"/>
<path d="M88.9263 253.331C88.9108 253.318 88.8912 253.311 88.8709 253.311C88.8506 253.311 88.8309 253.318 88.8155 253.331C85.4753 255.477 82.4671 258.101 79.8865 261.118C78.5922 262.635 77.4266 264.256 76.4019 265.966L75.6862 267.321L75.1239 268.727C74.9322 269.183 74.7672 269.649 74.6297 270.124C74.4849 270.61 74.323 271.087 74.1952 271.564C73.1742 275.417 72.5546 279.366 72.3463 283.347C72.1489 287.306 72.2971 291.274 72.7894 295.207C72.7941 295.224 72.8039 295.24 72.8176 295.252C72.8312 295.264 72.848 295.272 72.8661 295.275C72.8872 295.275 72.9077 295.267 72.9235 295.253C72.9392 295.239 72.9491 295.219 72.9512 295.198L73.9737 283.458C74.2604 279.573 74.7639 275.708 75.4817 271.879C75.5925 271.411 75.7288 270.95 75.8481 270.482C75.9584 270.012 76.095 269.548 76.257 269.093L76.7341 267.738L77.3476 266.46C78.2754 264.755 79.3441 263.131 80.5426 261.604C82.9297 258.494 85.7534 255.745 88.9263 253.442C88.9337 253.435 88.9397 253.426 88.9437 253.417C88.9478 253.407 88.9499 253.397 88.9499 253.386C88.9499 253.376 88.9478 253.366 88.9437 253.356C88.9397 253.347 88.9337 253.338 88.9263 253.331Z" fill="#263238"/>
<path d="M82.4682 268.42C80.7328 269.686 79.3393 271.364 78.4127 273.302C77.4325 275.198 76.6694 277.199 76.1378 279.266C75.9759 279.777 75.8482 280.297 75.7374 280.817L75.371 282.376C75.1779 283.424 75.0442 284.482 74.9706 285.545C74.9706 286.61 74.928 287.675 74.9706 288.74C75.0468 289.804 75.1862 290.862 75.3881 291.91C75.3881 291.91 75.3881 291.969 75.4477 291.969C75.4692 291.975 75.4918 291.971 75.5109 291.96C75.53 291.949 75.544 291.931 75.55 291.91C75.7943 290.878 75.982 289.835 76.1123 288.783C76.2742 287.752 76.436 286.729 76.5638 285.699C76.6916 284.668 76.845 283.654 76.9302 282.623C77.0154 281.592 77.1432 280.561 77.3647 279.556C77.7102 277.524 78.2818 275.538 79.0687 273.634C79.7838 271.684 80.9519 269.932 82.4767 268.522C82.4842 268.515 82.4901 268.506 82.4942 268.497C82.4983 268.487 82.5004 268.477 82.5004 268.467C82.5004 268.456 82.4983 268.446 82.4942 268.437C82.4901 268.427 82.4842 268.419 82.4767 268.411C82.4737 268.414 82.4708 268.417 82.4682 268.42Z" fill="#263238"/>
<path d="M63.7412 280.178C63.3067 274.963 62.4462 269.8 61.6368 264.646C60.8274 259.491 59.9328 254.345 58.9785 249.216C58.0243 244.087 56.9763 238.992 55.8773 233.88C55.8704 233.86 55.8577 233.843 55.841 233.831C55.8243 233.819 55.8042 233.812 55.7835 233.812C55.7723 233.814 55.7615 233.818 55.7519 233.824C55.7423 233.831 55.7341 233.839 55.7277 233.848C55.7213 233.858 55.717 233.869 55.7148 233.88C55.7127 233.891 55.7129 233.903 55.7154 233.914C56.61 239.026 57.4194 244.198 58.1777 249.361C58.9359 254.524 59.6942 259.67 60.3417 264.842C60.9893 270.013 61.4749 275.193 62.1309 280.357L64.0309 295.871C64.0357 295.889 64.0455 295.905 64.0591 295.917C64.0727 295.929 64.0896 295.937 64.1076 295.94C64.1183 295.941 64.1292 295.94 64.1396 295.936C64.1499 295.933 64.1594 295.928 64.1674 295.92C64.1755 295.913 64.1819 295.904 64.1862 295.894C64.1906 295.884 64.1929 295.874 64.1928 295.863C64.2524 294.559 64.2609 293.247 64.2865 291.935C64.3121 290.623 64.2354 289.328 64.2098 288.016C64.1672 285.383 63.9457 282.785 63.7412 280.178Z" fill="#263238"/>
<path d="M60.6232 280.101C60.342 278.039 59.9586 275.986 59.5667 273.941L58.834 270.891C58.5954 269.877 58.3739 268.863 58.0757 267.866C57.0369 263.821 55.7043 259.857 54.0884 256.006L53.4664 254.575L52.7678 253.169C52.3247 252.232 51.7965 251.329 51.2853 250.417C50.2637 248.589 48.9998 246.906 47.528 245.416C47.5208 245.408 47.5122 245.403 47.5027 245.398C47.4932 245.394 47.4829 245.392 47.4726 245.392C47.4622 245.392 47.452 245.394 47.4425 245.398C47.433 245.403 47.4244 245.408 47.4172 245.416C47.4097 245.423 47.4038 245.432 47.3997 245.441C47.3957 245.451 47.3936 245.461 47.3936 245.471C47.3936 245.482 47.3957 245.492 47.3997 245.501C47.4038 245.511 47.4097 245.52 47.4172 245.527C48.7772 247.07 49.9235 248.79 50.8252 250.639C51.2768 251.567 51.7624 252.479 52.1458 253.433L52.7592 254.848L53.3045 256.296C54.7448 260.161 55.9037 264.124 56.7722 268.156C57.2493 270.158 57.5645 272.203 57.9564 274.222L58.4421 277.281C58.621 278.295 58.834 279.3 58.9788 280.322C59.3026 282.367 59.6775 284.395 60.0353 286.431C60.3932 288.468 60.7254 290.521 61.1514 292.566C61.1567 292.584 61.1678 292.601 61.1831 292.613C61.1984 292.626 61.2171 292.633 61.2366 292.634C61.2577 292.632 61.2773 292.622 61.2914 292.606C61.3056 292.59 61.3134 292.57 61.3133 292.549C61.3133 290.47 61.3133 288.382 61.1685 286.303C61.0236 284.225 60.8362 282.171 60.6232 280.101Z" fill="#263238"/>
<path d="M56.3035 280.348C55.3408 277.613 54.2247 274.938 53.0063 272.314C51.777 269.697 50.3914 267.156 48.8571 264.705C48.8416 264.692 48.822 264.685 48.8017 264.685C48.7814 264.685 48.7617 264.692 48.7463 264.705C48.7388 264.712 48.7329 264.721 48.7288 264.731C48.7247 264.74 48.7227 264.75 48.7227 264.761C48.7227 264.771 48.7247 264.781 48.7288 264.791C48.7329 264.8 48.7388 264.809 48.7463 264.816C50.0739 267.364 51.2461 269.99 52.2565 272.68C53.3215 275.347 54.2758 278.048 55.0681 280.8C55.8605 283.552 56.4654 286.338 57.1981 289.098C57.9309 291.858 58.5869 294.636 59.4389 297.422C59.4437 297.44 59.4535 297.455 59.4671 297.468C59.4807 297.48 59.4976 297.488 59.5156 297.49C59.5375 297.488 59.5581 297.479 59.5737 297.463C59.5893 297.448 59.5989 297.427 59.6008 297.405C59.6201 294.492 59.3346 291.585 58.7488 288.732C58.1619 285.876 57.3442 283.072 56.3035 280.348Z" fill="#263238"/>
<path d="M56.1242 289.473C55.5966 287.769 54.8246 286.15 53.8324 284.668C52.9108 283.138 51.7874 281.74 50.4925 280.51C49.8307 279.918 49.1211 279.383 48.371 278.908C47.6296 278.414 46.8163 278.038 45.9599 277.792C45.9465 277.782 45.93 277.776 45.913 277.776C45.8961 277.776 45.8796 277.782 45.8662 277.792C45.853 277.807 45.8457 277.827 45.8457 277.847C45.8457 277.868 45.853 277.887 45.8662 277.903C47.4295 278.66 48.8124 279.744 49.9217 281.081C51.0365 282.354 51.9737 283.773 52.7077 285.298C53.5001 286.798 53.909 288.451 54.5906 289.993C54.8974 290.785 55.1956 291.577 55.5534 292.37C55.847 293.197 56.1972 294.002 56.6014 294.781C56.6077 294.794 56.6174 294.804 56.6294 294.812C56.6414 294.819 56.6553 294.823 56.6695 294.823C56.6803 294.825 56.6912 294.824 56.7015 294.82C56.7118 294.817 56.7213 294.812 56.7293 294.804C56.7374 294.797 56.7438 294.788 56.7482 294.778C56.7526 294.768 56.7548 294.758 56.7547 294.747C56.7875 293.857 56.7562 292.966 56.661 292.08C56.5247 291.211 56.3372 290.342 56.1242 289.473Z" fill="#263238"/>
<path d="M56.4483 241.335C53.8464 240.606 51.4928 239.18 49.6416 237.212C47.7903 235.243 46.5115 232.807 45.9432 230.165C43.958 220.964 50.3225 224.908 44.6226 210.484C38.9227 196.06 40.2433 192.72 42.254 188.554C44.2647 184.387 45.3127 185.708 47.0678 191.186C48.8229 196.665 55.1363 205.202 57.59 221.185C60.0438 237.169 56.4483 241.335 56.4483 241.335Z" fill="#D0EBEF"/>
<path d="M73.3092 225.82C73.3092 225.82 67.6178 223.843 67.3963 213.117C67.1748 202.39 71.5626 204.597 72.2186 191.22C72.8746 177.844 73.7522 168.446 76.1548 168.216C78.5575 167.986 84.9219 174.785 87.1116 189.678C89.3012 204.571 84.2574 214.386 79.8781 218.8C75.4988 223.213 73.3092 225.82 73.3092 225.82Z" fill="#D0EBEF"/>
<path d="M53.3811 254.251C53.3811 254.251 52.069 246.37 49.4448 242.647C46.8207 238.924 41.1208 235.635 37.3975 228.376C33.6743 221.117 29.5165 217.649 29.7295 227.941C29.9425 238.234 34.5859 243.525 40.2432 247.026C45.9005 250.528 53.3811 254.251 53.3811 254.251Z" fill="#D0EBEF"/>
<path d="M50.9784 267.832C50.9784 267.832 45.7215 257.753 38.0535 250.306C30.3855 242.86 24.2596 239.145 26.4493 242.86C28.6389 246.575 31.2716 246.362 34.9693 252.931C38.667 259.5 37.602 264.313 42.8588 268.037C48.1156 271.76 50.9784 267.832 50.9784 267.832Z" fill="#D0EBEF"/>
<path d="M50.3225 280.748C50.101 280.092 49.8795 275.27 42.433 271.334C34.9865 267.398 27.949 268.923 28.8607 270.891C29.7723 272.859 34.3305 276.148 38.9313 278.124C43.5321 280.101 50.3225 280.748 50.3225 280.748Z" fill="#D0EBEF"/>
<path d="M72.8749 254.686C72.8749 254.686 69.5862 250.528 71.3413 241.769C73.0964 233.011 77.0326 235.192 81.446 230.6C85.8594 226.007 84.9562 225.343 89.3355 220.529C93.7148 215.715 97.651 213.083 99.4062 215.051C101.161 217.019 98.5542 223.153 95.9044 226.663C93.2547 230.174 89.0884 231.912 87.1459 236.291C85.2033 240.67 86.0468 247.682 81.0115 250.963C75.9762 254.243 72.8749 254.686 72.8749 254.686Z" fill="#D0EBEF"/>
<path d="M83.8228 257.097C83.8228 257.097 91.6697 248.117 97.4036 241.548C103.138 234.979 105.285 229.944 105.506 234.323C105.728 238.702 107.474 242.204 102.873 247.904C98.2727 253.604 83.8228 257.097 83.8228 257.097Z" fill="#D0EBEF"/>
<path d="M79.6653 271.547C79.6653 271.547 79.4438 268.045 91.9256 259.943C104.407 251.84 109.664 250.306 108.352 253.595C107.04 256.884 101.536 260.164 95.6488 266.077C89.7615 271.99 79.6653 271.547 79.6653 271.547Z" fill="#D0EBEF"/>
<path d="M56.9681 240.398C56.9681 240.398 54.0457 224.687 51.0041 213.517C47.9624 202.347 45.9688 195.565 45.9688 195.565" stroke="#263238" stroke-linecap="round" stroke-linejoin="round"/>
<path d="M72.8066 225.948C72.8066 225.948 78.1316 208.908 79.8782 198.633C81.6248 188.358 79.6652 180.673 78.7877 176.072" stroke="#263238" stroke-linecap="round" stroke-linejoin="round"/>
<path d="M52.6911 253.936C50.3352 249.881 47.6358 246.036 44.6227 242.443C39.8089 236.751 36.1027 233.684 33.896 228.206" stroke="#263238" stroke-linecap="round" stroke-linejoin="round"/>
<path d="M72.875 254.686C72.875 254.686 74.6301 244.181 78.7879 238.702C82.9456 233.224 91.2697 224.687 94.5499 219.217" stroke="#263238" stroke-linecap="round" stroke-linejoin="round"/>
<path d="M49.8027 280.51C49.8027 280.51 42.4329 275.713 37.1846 273.08" stroke="#263238" stroke-linecap="round" stroke-linejoin="round"/>
<path d="M91.9935 324.652C91.5079 311.369 76.7427 302.5 76.7427 302.5H54.1136C54.1136 302.5 39.3484 311.361 38.8457 324.652C38.3431 337.943 55.579 386.669 55.579 386.669H75.2602C75.2602 386.669 92.5217 337.935 91.9935 324.652Z" fill="#263238" stroke="#263238" stroke-linecap="round" stroke-linejoin="round"/>
<path d="M79.6565 289.439H50.7822L54.1135 302.5H76.3252L79.6565 289.439Z" fill="#263238" stroke="#263238" stroke-linecap="round" stroke-linejoin="round"/>
<path d="M194.123 216.925C194.123 216.925 186.651 224.849 186.651 227.337C186.651 229.824 187.554 235.72 187.103 237.978C186.651 240.236 168.086 254.507 168.086 254.507L173.743 268.769C173.743 268.769 188.909 244.777 193.441 238.438C197.974 232.099 202.95 225.53 203.401 222.131C203.853 218.731 196.159 215.596 194.123 216.925Z" fill="#D4D4D4" stroke="#263238" stroke-miterlimit="10"/>
<path d="M195.367 275.705L217.374 267.031C217.374 267.031 231.704 250.843 242.678 238.983C253.652 227.124 267.386 229.833 267.386 238.37C267.386 246.907 263.424 259.67 259.769 265.208C256.114 270.746 248.787 285.025 248.787 285.025C248.787 285.025 274.407 291.126 281.419 295.088C288.43 299.049 316.598 319.037 331.082 329.474C340.607 336.29 346.136 339.068 347.662 339.068C348.07 339.068 348.803 339 349.672 338.897C353.157 338.488 357.34 334.816 360.339 332.933C364.454 330.377 370.751 326.842 374.414 326.458C380.208 325.845 378.078 334.382 373.809 340.482C369.541 346.582 361.881 348.414 359.172 350.544C356.463 352.674 350.652 353.901 348.496 354.208C346.341 354.515 327.154 346.582 318.915 343.226C310.676 339.869 295.144 339.102 285.755 327.89C282.644 324.102 279.143 320.652 275.31 317.597C275.31 317.597 224.386 319.727 215.235 320.648C206.085 321.568 185.049 322.173 176.205 322.173C167.361 322.173 162.854 318.671 162.854 318.671C162.854 318.671 159.446 313.934 164.618 306.317C169.789 298.7 195.367 275.705 195.367 275.705Z" fill="#6E6E6E" stroke="#263238" stroke-miterlimit="10"/>
<path d="M373.81 340.525C378.07 334.424 380.208 325.887 374.414 326.501C370.751 326.884 364.455 330.429 360.339 332.976C357.349 334.816 353.157 338.488 349.672 338.94C348.82 339.042 348.071 339.11 347.662 339.11C346.375 339.11 342.2 337.134 335.171 332.371C334.183 336.478 331.32 341.666 323.652 345.245C332.914 349.019 346.707 354.549 348.497 354.293C350.635 353.986 356.429 352.768 359.172 350.629C361.916 348.491 369.541 346.625 373.81 340.525Z" fill="#D4D4D4" stroke="#263238" stroke-miterlimit="10"/>
<path d="M373.809 340.525C378.069 334.424 380.208 325.887 374.414 326.501C370.751 326.884 364.454 330.429 360.339 332.976C357.349 334.816 353.157 338.488 349.672 338.94C348.82 339.042 348.071 339.11 347.662 339.11C347.235 339.075 346.816 338.978 346.418 338.821C347.457 341.292 348.377 346.582 341.306 352.172C344.986 353.509 347.781 354.395 348.522 354.293C350.661 353.986 356.454 352.768 359.198 350.629C361.941 348.491 369.541 346.625 373.809 340.525Z" fill="white" stroke="#263238" stroke-miterlimit="10"/>
<path d="M215.508 277.911C214.853 277.449 214.173 277.023 213.472 276.633" stroke="#263238" stroke-miterlimit="10"/>
<path d="M248.779 285.025L221.174 283.407C220.034 281.872 218.716 280.48 217.246 279.257" stroke="#263238" stroke-miterlimit="10"/>
<path d="M199.533 289.976C200.736 288.894 202.116 288.029 203.614 287.42" stroke="#263238" stroke-miterlimit="10"/>
<path d="M191.601 298.811C193.272 296.51 195.1 294.326 197.071 292.276" stroke="#263238" stroke-miterlimit="10"/>
<path d="M194.685 290.495C194.685 290.495 188.525 296.033 187.017 303.122" stroke="#263238" stroke-miterlimit="10"/>
<path d="M195.367 275.705C195.324 276.536 195.161 277.357 194.881 278.141C194.387 279.615 191.218 291.841 182.655 302.347C177.101 308.962 170.392 314.513 162.855 318.731C152.536 310.72 143.11 301.622 134.739 291.594C120.306 274.478 111.735 258.102 112.237 239.026C112.74 219.95 118.849 207.979 118.849 207.979L118.355 193.308C119.334 190.862 124.472 187.446 131.314 191.842C138.155 196.239 143.54 206.514 143.54 206.514L142.56 212.375C142.56 212.375 145.491 214.335 147.203 215.315C148.916 216.295 155.272 221.909 160.895 228.998C166.518 236.087 172.388 257.37 173.368 262.746C174.348 268.122 182.417 269.093 182.417 269.093L190.724 273.506L195.367 275.705Z" fill="#D0EBEF" stroke="#263238" stroke-miterlimit="10"/>
<path d="M143.54 206.514L142.56 212.375C142.56 212.375 127.403 207.485 118.849 207.979L118.354 193.308C119.334 190.862 124.472 187.446 131.313 191.842C138.155 196.239 143.54 206.514 143.54 206.514Z" fill="#D4D4D4" stroke="#263238" stroke-miterlimit="10"/>
<path d="M152.102 166.981C152.102 166.981 156.26 177.81 155.186 180.613C154.566 182.242 154.042 183.906 153.619 185.597C153.619 185.597 159.957 192.49 158.731 194.322C157.504 196.153 154.232 196.997 154.232 196.997C154.232 196.997 153.38 208.465 152.673 210.348C151.966 212.231 149.768 214.199 145.235 212.904C140.702 211.609 134.065 207.417 131.603 205.406C129.141 203.395 127.624 188.937 127.624 188.937L132.736 187.318C132.736 187.318 131.501 181.022 132.123 179.863C132.745 178.704 139.791 179.531 138.581 175.203C137.371 170.875 134.858 169.102 136.272 167.535C137.686 165.967 152.102 166.981 152.102 166.981Z" fill="#D4D4D4" stroke="#263238" stroke-miterlimit="10"/>
<path d="M153.295 201.112C153.295 201.112 146.079 201.742 145.09 195.472" stroke="#263238" stroke-miterlimit="10"/>
<path d="M147.118 194.952L142.466 196.869" stroke="#263238" stroke-miterlimit="10"/>
<path d="M150.143 185.887C149.921 187.156 149.291 188.102 148.771 188.008C148.251 187.914 147.996 186.815 148.217 185.546C148.439 184.276 149.069 183.339 149.589 183.433C150.109 183.527 150.364 184.626 150.143 185.887Z" fill="#263238"/>
<path d="M146.377 182.317C146.377 182.317 149.691 179.258 152.588 181.806" stroke="#263238" stroke-miterlimit="10"/>
<path d="M157.615 166.18C157.299 168.847 152.102 167.032 152.102 167.032L141.392 170.218C141.392 170.218 141.614 174.666 141.512 177.614C141.409 180.562 135.284 182.547 135.284 182.547L134.432 195.991L118.244 195.327L115.918 189.891C115.918 189.891 105.694 180.332 106.81 170.857C107.491 165.055 111.854 159.398 118.874 156.373C121.32 155.335 123.902 154.655 126.542 154.354C129.375 154.031 132.236 154.06 135.062 154.439C151.352 156.561 157.93 163.479 157.615 166.18Z" fill="#263238" stroke="#263238" stroke-miterlimit="10"/>
<path d="M126.474 183.365L120.365 186.773C120.109 186.304 114.674 176.293 118.917 156.356C121.362 155.318 123.945 154.638 126.585 154.337C124.114 163.888 124.029 170.917 124.514 175.305C125.06 180.664 126.465 183.339 126.474 183.365Z" fill="white" stroke="#263238" stroke-miterlimit="10"/>
<path d="M128.478 199.226C133.634 197.203 136.173 191.383 134.149 186.228C132.126 181.072 126.306 178.533 121.151 180.557C115.995 182.58 113.456 188.4 115.48 193.555C117.503 198.711 123.323 201.25 128.478 199.226Z" fill="white" stroke="#263238" stroke-miterlimit="10"/>
<path d="M128.621 237.808C131.817 247.34 135.825 256.582 140.6 265.429C148.43 279.854 160.196 295.505 164.567 294.525C168.938 293.545 193.654 251.005 195.367 247.342C197.079 243.678 199.771 238.293 199.771 238.293C199.771 238.293 205.395 234.136 205.88 232.423C206.366 230.71 205.233 222.591 205.233 222.591C205.233 222.591 208.215 218.672 207.243 216.959C206.272 215.247 204.628 215.783 202.924 216.763C201.22 217.743 197.497 220.478 197.497 220.478C197.972 218.568 198.007 216.575 197.599 214.65C196.866 211.966 194.634 212.87 194.387 214.582C194.14 216.295 194.148 217.99 193.416 219.694C192.369 221.746 191.614 223.934 191.175 226.195C190.689 229.126 189.369 237.058 189.369 237.058C189.369 237.058 175.83 252.172 172.158 255.853C170.343 257.659 166.501 260.607 166.501 260.607L156.498 240.721C156.498 240.721 151.386 222.634 145.985 217.717C143.37 215.347 140.1 213.821 136.603 213.341C133.106 212.86 129.546 213.447 126.389 215.025" fill="#D0EBEF"/>
<path d="M128.621 237.808C131.817 247.34 135.825 256.582 140.6 265.429C148.43 279.854 160.196 295.505 164.567 294.525C168.938 293.545 193.654 251.005 195.367 247.342C197.079 243.678 199.771 238.293 199.771 238.293C199.771 238.293 205.395 234.136 205.88 232.423C206.366 230.71 205.233 222.591 205.233 222.591C205.233 222.591 208.215 218.672 207.243 216.959C206.272 215.247 204.628 215.783 202.924 216.763C201.22 217.743 197.497 220.478 197.497 220.478C197.972 218.568 198.007 216.575 197.599 214.65C196.866 211.966 194.634 212.87 194.387 214.582C194.14 216.295 194.148 217.99 193.416 219.694C192.369 221.746 191.614 223.934 191.175 226.195C190.689 229.126 189.369 237.058 189.369 237.058C189.369 237.058 175.83 252.172 172.158 255.853C170.343 257.659 166.501 260.607 166.501 260.607L156.498 240.721C156.498 240.721 151.386 222.634 145.985 217.717C143.37 215.347 140.1 213.821 136.603 213.341C133.106 212.86 129.546 213.447 126.389 215.025" stroke="#263238" stroke-miterlimit="10"/>
<path d="M197.642 226.672C197.478 226.64 197.323 226.577 197.184 226.484C197.045 226.392 196.927 226.273 196.834 226.134C196.742 225.995 196.679 225.839 196.648 225.676C196.617 225.512 196.619 225.344 196.653 225.181L202.677 197.022C202.747 196.706 202.937 196.428 203.207 196.249C203.477 196.069 203.806 196.001 204.126 196.06C204.289 196.091 204.445 196.155 204.583 196.247C204.722 196.34 204.841 196.459 204.933 196.598C205.025 196.736 205.088 196.892 205.119 197.056C205.15 197.219 205.149 197.388 205.114 197.551L199.082 225.667C199.024 225.991 198.839 226.278 198.569 226.467C198.3 226.655 197.966 226.729 197.642 226.672Z" fill="#263238" stroke="#263238" stroke-miterlimit="10"/>
<path d="M205.88 232.423C206.366 230.719 205.233 222.591 205.233 222.591C205.233 222.591 208.215 218.672 207.243 216.959C206.272 215.247 204.628 215.783 202.924 216.763C201.22 217.743 197.497 220.478 197.497 220.478C197.972 218.568 198.007 216.575 197.599 214.65C196.866 211.966 194.634 212.87 194.387 214.582C194.14 216.295 194.148 217.99 193.415 219.694C192.369 221.746 191.614 223.934 191.175 226.195C190.689 229.126 189.368 237.058 189.368 237.058C189.368 237.058 187.085 239.614 184.137 242.869L193.91 250.068C194.659 248.722 195.171 247.768 195.367 247.342C197.071 243.669 199.771 238.293 199.771 238.293C199.771 238.293 205.395 234.136 205.88 232.423Z" fill="#D4D4D4" stroke="#263238" stroke-miterlimit="10"/>
<path d="M197.497 220.478C197.497 220.478 194.685 222.693 193.876 224.397" stroke="#263238" stroke-miterlimit="10"/>
<path d="M250.849 243.414C250.849 243.414 249.094 252.649 251.948 259.687C254.802 266.724 268.221 292.225 269.099 296.843C269.976 301.461 266.901 309.163 269.32 312.017C271.74 314.871 283.395 315.757 294.386 315.101C305.377 314.445 311.758 313.116 313.079 308.498C314.4 303.88 315.277 301.461 311.98 301.461C308.683 301.461 305.377 301.904 300.981 301.026C296.584 300.148 286.914 294.645 285.593 293.767C284.273 292.889 283.174 290.248 283.174 290.248C283.174 290.248 280.098 281.234 277.014 260.122C273.93 239.009 276.162 230.003 266.245 226.894C256.327 223.784 244.851 236.504 242.678 238.958" fill="#6E6E6E"/>
<path d="M250.849 243.414C250.849 243.414 249.094 252.649 251.948 259.687C254.802 266.724 268.221 292.225 269.099 296.843C269.976 301.461 266.901 309.163 269.32 312.017C271.74 314.871 283.395 315.757 294.386 315.101C305.377 314.445 311.758 313.116 313.079 308.498C314.4 303.88 315.277 301.461 311.98 301.461C308.683 301.461 305.377 301.904 300.981 301.026C296.584 300.148 286.914 294.645 285.593 293.767C284.273 292.889 283.174 290.248 283.174 290.248C283.174 290.248 280.098 281.234 277.014 260.122C273.93 239.009 276.162 230.003 266.245 226.894C256.327 223.784 244.851 236.504 242.678 238.958" stroke="#263238" stroke-miterlimit="10"/>
<path d="M313.079 308.464C314.4 303.846 315.277 301.426 311.98 301.426C308.683 301.426 305.377 301.87 300.981 300.992C296.584 300.114 286.914 294.61 285.594 293.733C284.273 292.855 283.174 290.214 283.174 290.214C281.953 286.259 280.949 282.24 280.166 278.175C272.422 275.492 266.534 280.587 263.621 283.995C266.449 289.907 268.733 294.994 269.099 296.775C269.951 301.392 266.901 309.094 269.32 311.949C271.74 314.803 283.396 315.689 294.386 315.033C305.377 314.377 311.759 313.116 313.079 308.464Z" fill="#D4D4D4" stroke="#263238" stroke-miterlimit="10"/>
<path d="M311.98 301.461C308.683 301.461 305.377 301.904 300.981 301.026C296.584 300.148 286.914 294.645 285.594 293.767C284.273 292.889 283.174 290.248 283.174 290.248C283.174 290.248 282.91 289.481 282.467 287.871C274.645 287.394 270.309 290.776 268.042 293.758C268.482 294.755 268.835 295.786 269.099 296.843C269.951 301.461 266.901 309.163 269.32 312.017C271.74 314.871 283.396 315.757 294.386 315.101C305.377 314.445 311.759 313.116 313.079 308.498C314.4 303.88 315.277 301.461 311.98 301.461Z" fill="white" stroke="#263238" stroke-miterlimit="10"/>
<path d="M205.659 353.773H120.007V358.86H205.659V353.773Z" fill="#919191" stroke="#263238" stroke-miterlimit="10"/>
<path d="M194.634 327.481L222.358 382.537C222.563 382.946 222.659 383.4 222.639 383.856C222.619 384.313 222.483 384.757 222.243 385.146C222.003 385.535 221.668 385.857 221.269 386.08C220.87 386.303 220.421 386.421 219.964 386.422C219.485 386.422 219.015 386.292 218.602 386.048C218.19 385.804 217.851 385.453 217.621 385.033L187 329.176L194.634 327.481Z" fill="#919191" stroke="#263238" stroke-miterlimit="10"/>
<path d="M132.566 312.792L107.355 383.014C107.19 383.44 107.137 383.902 107.201 384.355C107.264 384.808 107.443 385.237 107.72 385.601C107.997 385.965 108.363 386.252 108.782 386.435C109.202 386.617 109.661 386.689 110.116 386.643C110.594 386.598 111.052 386.425 111.44 386.141C111.829 385.858 112.133 385.475 112.323 385.033L140.285 313.729L132.566 312.792Z" fill="#919191" stroke="#263238" stroke-miterlimit="10"/>
<path d="M125.52 228.691C125.52 228.691 113.651 212.58 108.565 213.423C103.479 214.267 98.341 250.315 104.305 274.486C110.269 298.657 131.041 323.638 159.83 331.298C193.33 340.201 221.915 324.482 222.162 321.551C222.409 318.62 191.243 306.709 125.52 228.691Z" fill="#D4D4D4"/>
<path opacity="0.29" d="M159.83 331.298C193.331 340.201 221.915 324.482 222.162 321.551C222.264 320.315 216.948 317.546 205.974 309.163C150.995 311.114 118.985 289.354 104.671 276.028C111.155 299.705 131.654 323.8 159.83 331.298Z" fill="black"/>
<path d="M125.52 228.691C125.52 228.691 113.651 212.58 108.565 213.423C103.479 214.267 98.341 250.315 104.305 274.486C110.269 298.657 131.041 323.638 159.83 331.298C193.33 340.201 221.915 324.482 222.162 321.551C222.409 318.62 191.243 306.709 125.52 228.691Z" stroke="#263238" stroke-miterlimit="10"/>
<path d="M374.415 351.064C374.415 351.064 364.617 347.571 341.766 345.952C318.915 344.333 297.249 346.804 296.397 348.925C295.75 350.544 299.072 371.759 300.657 381.642C300.882 383.042 301.598 384.316 302.677 385.235C303.756 386.155 305.127 386.66 306.544 386.661H368.868C370.294 386.661 371.672 386.15 372.753 385.222C373.835 384.294 374.548 383.009 374.764 381.6L378.547 356.96C378.778 355.648 378.488 354.298 377.738 353.196C376.989 352.095 375.839 351.33 374.534 351.064H374.415Z" fill="#D4D4D4"/>
<path opacity="0.29" d="M373.333 384.65C343.112 384.718 327.027 369.663 319.418 356.474C316.453 351.362 311.622 348.261 306.638 346.446C300.606 347.119 296.721 348.048 296.414 348.925C295.767 350.544 299.089 371.759 300.674 381.642C300.899 383.042 301.615 384.316 302.694 385.235C303.773 386.155 305.144 386.66 306.561 386.661H368.885C369.726 386.658 370.558 386.478 371.324 386.131C372.091 385.784 372.775 385.28 373.333 384.65Z" fill="black"/>
<path d="M374.415 351.064C374.415 351.064 364.617 347.571 341.766 345.952C318.915 344.333 297.249 346.804 296.397 348.925C295.75 350.544 299.072 371.759 300.657 381.642C300.882 383.042 301.598 384.316 302.677 385.235C303.756 386.155 305.127 386.66 306.544 386.661H368.868C370.294 386.661 371.672 386.15 372.753 385.222C373.835 384.294 374.548 383.009 374.764 381.6L378.547 356.96C378.778 355.648 378.488 354.298 377.738 353.196C376.989 352.095 375.839 351.33 374.534 351.064H374.415Z" stroke="#263238" stroke-miterlimit="10"/>
</g>
<defs>
<clipPath id="clip0_245_2593">
<rect width="403" height="387" fill="white"/>
</clipPath>
</defs>
</svg>
