<svg width="382" height="343" viewBox="0 0 382 343" fill="none" xmlns="http://www.w3.org/2000/svg">
<path d="M370.756 210.215C358.648 242.627 333.922 277.71 299.127 288.1C246.519 303.8 240.272 346.174 146.104 342.245C132.348 341.739 118.688 339.738 105.365 336.277C98.8616 334.559 92.4729 332.431 86.2374 329.907C31.2209 307.622 2.52492 258.582 0.149341 207.273C-2.9907 139.778 44.0935 107.613 74.6965 88.7814C105.3 69.9494 142.183 -3.0031 234.781 0.0958373C248.922 0.520102 262.966 2.57219 276.637 6.21152C307.799 14.6452 339.471 33.2964 357.884 60.5622C359.265 62.6172 360.585 64.7105 361.846 66.8422C386.489 108.641 387.254 166.025 370.756 210.215Z" fill="#0AB7D8"/>
<path opacity="0.9" d="M370.756 210.215C358.648 242.627 333.922 277.71 299.127 288.1C246.519 303.8 240.272 346.174 146.104 342.245C132.348 341.739 118.688 339.738 105.365 336.277C98.8616 334.559 92.4729 332.431 86.2374 329.907C31.2209 307.622 2.52492 258.582 0.149341 207.273C-2.9907 139.778 44.0935 107.613 74.6965 88.7814C105.3 69.9494 142.183 -3.0031 234.781 0.0958373C248.922 0.520102 262.966 2.57219 276.637 6.21152C307.799 14.6452 339.471 33.2964 357.884 60.5622C359.265 62.6172 360.585 64.7105 361.846 66.8422C386.489 108.641 387.254 166.025 370.756 210.215Z" fill="white"/>
</svg>
