<svg width="72" height="73" viewBox="0 0 72 73" fill="none" xmlns="http://www.w3.org/2000/svg">
<path d="M71.9999 1.38944C71.7553 1.84904 71.5575 2.38033 71.2584 2.75982C67.0209 8.11906 62.7678 13.4572 58.521 18.8017C54.1791 24.2685 49.8403 29.7373 45.4969 35.202C45.3084 35.4402 45.095 35.6426 44.8286 35.9336C49.4197 43.7616 53.9407 51.4716 58.5817 59.3882C58.1268 59.4409 57.9072 59.4872 57.6875 59.4872C54.0093 59.4915 50.3295 59.5062 46.6513 59.4641C46.3179 59.4598 45.8973 59.1963 45.6683 58.8611C42.8687 54.7752 40.0894 50.6641 37.3304 46.5298C37.0952 46.1777 36.9113 45.6169 36.9098 45.151C36.8771 37.9638 36.8693 30.7746 36.8973 23.5875C36.8989 23.0646 37.1544 22.4511 37.4239 22.0358C41.3451 16.0146 45.377 10.1198 49.1829 3.96997C50.5726 1.72044 51.9871 0.921399 54.1183 1.00362C59.7361 1.22077 65.3617 1.09428 70.9842 1.10482C71.2646 1.10482 71.545 1.10482 71.8254 1.10482C71.8831 1.19969 71.9423 1.29456 71.9999 1.38944Z" fill="#5C44D1"/>
<path d="M25.3386 38.447C20.9578 30.5726 16.6689 22.8647 12.2491 14.9229C12.7181 14.8617 12.9782 14.7985 13.2384 14.7985C16.7359 14.7921 20.2349 14.7711 23.7324 14.8259C24.1421 14.8322 24.6672 15.1084 24.9382 15.509C27.635 19.4852 30.3021 23.4972 32.938 27.5472C33.245 28.0174 33.4646 28.7721 33.4677 29.3983C33.5036 36.4104 33.4818 43.4247 33.5005 50.4368C33.502 51.2611 33.3431 51.8873 32.9365 52.5113C28.6787 59.0196 24.435 65.5426 20.2069 72.0846C19.8081 72.7023 19.3874 72.9237 18.797 72.9216C12.9673 72.9068 7.1361 72.9321 1.30644 72.9195C0.884247 72.9195 0.233045 73.2884 0.109971 72.4261C-0.00998752 71.587 -0.16422 70.6341 0.449593 69.8772C1.86417 68.1295 3.2507 66.3395 4.64969 64.5665C11.3409 56.0849 18.0305 47.6054 24.7232 39.128C24.8931 38.913 25.0831 38.7295 25.3402 38.447H25.3386Z" fill="black"/>
</svg>
