<svg width="143" height="49" viewBox="0 0 143 49" fill="none" xmlns="http://www.w3.org/2000/svg">
<path d="M64.9987 0.266446C64.7779 0.579234 64.5992 0.940804 64.3292 1.19907C60.5038 4.84634 56.6643 8.47927 52.8304 12.1165C48.9107 15.8369 44.9939 19.5588 41.0728 23.2778C40.9027 23.44 40.71 23.5777 40.4695 23.7757C44.6142 29.1031 48.6956 34.3502 52.8853 39.7379C52.4746 39.7738 52.2763 39.8053 52.078 39.8053C48.7574 39.8082 45.4355 39.8183 42.115 39.7896C41.814 39.7867 41.4343 39.6073 41.2275 39.3792C38.7002 36.5986 36.1912 33.8007 33.7004 30.987C33.4881 30.7474 33.3221 30.3658 33.3207 30.0487C33.2912 25.1574 33.2841 20.2647 33.3095 15.3735C33.3109 15.0177 33.5415 14.6001 33.7848 14.3175C37.3248 10.2197 40.9645 6.20797 44.4004 2.02265C45.6549 0.491711 46.9319 -0.0520802 48.8559 0.00387721C53.9274 0.151662 59.0059 0.0655738 64.0817 0.0727478C64.3348 0.0727478 64.588 0.0727478 64.8411 0.0727478C64.8932 0.137314 64.9466 0.20188 64.9987 0.266446Z" fill="#06B6D4"/>
<path d="M22.8747 25.486C18.9198 20.127 15.048 14.8814 11.058 9.47647C11.4813 9.43486 11.7162 9.39182 11.9511 9.39182C15.1085 9.38751 18.2673 9.37317 21.4247 9.41047C21.7945 9.41477 22.2685 9.60274 22.5132 9.87535C24.9477 12.5814 27.3555 15.3118 29.7351 18.0681C30.0122 18.388 30.2105 18.9017 30.2133 19.3278C30.2457 24.1 30.226 28.8736 30.2428 33.6457C30.2442 34.2068 30.1008 34.6329 29.7337 35.0576C25.89 39.4868 22.0589 43.9261 18.242 48.3783C17.8819 48.7987 17.5022 48.9494 16.9692 48.9479C11.7064 48.9379 6.44218 48.9551 1.1794 48.9465C0.798262 48.9465 0.210383 49.1976 0.0992772 48.6108C-0.00901633 48.0397 -0.148251 47.3912 0.405874 46.8761C1.68289 45.6866 2.9346 44.4685 4.19755 43.2618C10.2381 37.4896 16.2772 31.7188 22.3191 25.9495C22.4724 25.8031 22.644 25.6783 22.8761 25.486H22.8747Z" fill="black"/>
<path d="M68.304 18.6727L67.6716 22.4909H56.6227L57.267 18.6727H68.304ZM60.4886 14.2818H65.5716L62.7318 31.3682C62.6523 31.8375 62.6642 32.2034 62.7676 32.4659C62.871 32.7205 63.042 32.8994 63.2807 33.0028C63.5273 33.1063 63.8216 33.158 64.1636 33.158C64.4023 33.158 64.6449 33.1381 64.8915 33.0983C65.1381 33.0506 65.325 33.0148 65.4523 32.9909L65.6432 36.7733C65.3568 36.8608 64.971 36.9563 64.4858 37.0597C64.0085 37.1631 63.4437 37.2267 62.7915 37.2506C61.5506 37.2983 60.5006 37.1352 59.6415 36.7614C58.7824 36.3795 58.1659 35.7949 57.792 35.0074C57.4182 34.2199 57.3386 33.2295 57.5534 32.0364L60.4886 14.2818ZM72.7309 37.346C71.5696 37.346 70.5633 37.1432 69.7122 36.7375C68.869 36.3239 68.2485 35.7114 67.8508 34.9C67.4531 34.0886 67.3536 33.0824 67.5525 31.8813C67.7275 30.8631 68.0576 30.0119 68.5429 29.3278C69.036 28.6358 69.6366 28.079 70.3446 27.6574C71.0525 27.2358 71.836 26.9136 72.6951 26.6909C73.5622 26.4682 74.4571 26.317 75.3798 26.2375C76.4457 26.1261 77.3127 26.0188 77.9809 25.9153C78.6571 25.8119 79.1622 25.6648 79.4963 25.4739C79.8304 25.275 80.0332 24.9807 80.1048 24.5909V24.5193C80.2241 23.7716 80.0849 23.1909 79.6872 22.7773C79.2974 22.3557 78.673 22.1449 77.8139 22.1449C76.9071 22.1449 76.1355 22.3437 75.4991 22.7415C74.8707 23.1392 74.4213 23.6443 74.1508 24.2568L69.5213 23.875C69.9349 22.7614 70.5593 21.7989 71.3946 20.9875C72.2377 20.1682 73.2519 19.5398 74.4372 19.1023C75.6224 18.6568 76.9508 18.4341 78.4224 18.4341C79.4406 18.4341 80.3911 18.5534 81.2741 18.792C82.165 19.0307 82.9326 19.4006 83.5769 19.9017C84.2292 20.4028 84.6985 21.0472 84.9849 21.8347C85.2792 22.6142 85.3389 23.5489 85.1639 24.6386L83.0997 37H78.2792L78.7088 34.4585H78.5656C78.1758 35.0313 77.6985 35.5364 77.1338 35.9739C76.569 36.4034 75.9207 36.7415 75.1889 36.9881C74.4571 37.2267 73.6377 37.346 72.7309 37.346ZM74.7713 33.8381C75.511 33.8381 76.1911 33.6909 76.8116 33.3966C77.44 33.0943 77.9571 32.6886 78.3627 32.1795C78.7764 31.6705 79.0389 31.0938 79.1502 30.4494L79.4605 28.5045C79.3014 28.608 79.0707 28.6994 78.7684 28.779C78.4741 28.8585 78.1519 28.9341 77.8019 29.0057C77.4599 29.0693 77.1139 29.129 76.7639 29.1847C76.4139 29.2324 76.0997 29.2801 75.8213 29.3278C75.2088 29.4153 74.6599 29.5545 74.1747 29.7455C73.6894 29.9364 73.2957 30.1949 72.9934 30.521C72.6911 30.8392 72.5042 31.2369 72.4326 31.7142C72.3213 32.4063 72.4843 32.9352 72.9218 33.3011C73.3673 33.6591 73.9838 33.8381 74.7713 33.8381ZM91.5118 31.7261L92.526 25.629H93.2658L100.318 18.6727H106.152L96.7499 27.8841H95.5329L91.5118 31.7261ZM86.0351 37L90.092 12.5636H95.1749L91.1181 37H86.0351ZM97.4897 37L93.4329 29.0176L97.4062 25.4261L103.444 37H97.4897ZM112.133 37.358C110.256 37.358 108.701 36.9761 107.468 36.2125C106.235 35.4409 105.368 34.3511 104.867 32.9432C104.374 31.5273 104.29 29.8528 104.616 27.9199C104.934 26.0347 105.575 24.3801 106.537 22.9563C107.508 21.5324 108.725 20.4227 110.188 19.6273C111.652 18.8318 113.283 18.4341 115.08 18.4341C116.289 18.4341 117.383 18.629 118.362 19.0188C119.348 19.4006 120.167 19.9813 120.82 20.7608C121.472 21.5324 121.917 22.4989 122.156 23.6602C122.403 24.8216 122.399 26.1818 122.144 27.7409L121.917 29.1369H106.454L106.943 25.9869H117.634C117.753 25.2551 117.705 24.6068 117.491 24.042C117.276 23.4773 116.918 23.0358 116.417 22.7176C115.916 22.3915 115.299 22.2284 114.567 22.2284C113.82 22.2284 113.12 22.4114 112.467 22.7773C111.815 23.1432 111.266 23.6244 110.821 24.221C110.383 24.8097 110.101 25.45 109.974 26.142L109.413 29.2682C109.254 30.2307 109.286 31.0301 109.508 31.6665C109.739 32.3028 110.137 32.7801 110.701 33.0983C111.266 33.4085 111.982 33.5636 112.849 33.5636C113.414 33.5636 113.943 33.4841 114.436 33.325C114.937 33.1659 115.383 32.9313 115.772 32.621C116.162 32.3028 116.48 31.9091 116.727 31.4398L121.368 31.75C120.939 32.8795 120.287 33.8659 119.412 34.7091C118.537 35.5443 117.483 36.1966 116.25 36.6659C115.025 37.1273 113.653 37.358 112.133 37.358ZM131.239 37.358C129.362 37.358 127.807 36.9761 126.574 36.2125C125.341 35.4409 124.474 34.3511 123.973 32.9432C123.48 31.5273 123.396 29.8528 123.722 27.9199C124.04 26.0347 124.681 24.3801 125.643 22.9563C126.614 21.5324 127.831 20.4227 129.294 19.6273C130.758 18.8318 132.389 18.4341 134.186 18.4341C135.396 18.4341 136.489 18.629 137.468 19.0188C138.454 19.4006 139.273 19.9813 139.926 20.7608C140.578 21.5324 141.023 22.4989 141.262 23.6602C141.509 24.8216 141.505 26.1818 141.25 27.7409L141.023 29.1369H125.56L126.049 25.9869H136.74C136.859 25.2551 136.811 24.6068 136.597 24.042C136.382 23.4773 136.024 23.0358 135.523 22.7176C135.022 22.3915 134.405 22.2284 133.673 22.2284C132.926 22.2284 132.226 22.4114 131.573 22.7773C130.921 23.1432 130.372 23.6244 129.927 24.221C129.489 24.8097 129.207 25.45 129.08 26.142L128.519 29.2682C128.36 30.2307 128.392 31.0301 128.614 31.6665C128.845 32.3028 129.243 32.7801 129.807 33.0983C130.372 33.4085 131.088 33.5636 131.955 33.5636C132.52 33.5636 133.049 33.4841 133.542 33.325C134.043 33.1659 134.489 32.9313 134.879 32.621C135.268 32.3028 135.586 31.9091 135.833 31.4398L140.475 31.75C140.045 32.8795 139.393 33.8659 138.518 34.7091C137.643 35.5443 136.589 36.1966 135.356 36.6659C134.131 37.1273 132.759 37.358 131.239 37.358Z" fill="black"/>
</svg>
