<svg width="512" height="513" viewBox="0 0 512 513" fill="none" xmlns="http://www.w3.org/2000/svg">
<path d="M512 3.78202C510.261 7.05034 508.854 10.8284 506.727 13.527C476.593 51.6374 446.349 89.5978 416.15 127.603C385.274 166.478 354.421 205.368 323.534 244.228C322.194 245.922 320.676 247.361 318.782 249.43C351.43 305.097 383.579 359.923 416.582 416.219C413.347 416.594 411.785 416.924 410.223 416.924C384.067 416.954 357.899 417.059 331.743 416.759C329.373 416.729 326.381 414.855 324.753 412.471C304.845 383.416 285.081 354.181 265.461 324.782C263.788 322.278 262.481 318.29 262.47 314.977C262.237 263.868 262.182 212.744 262.381 161.636C262.393 157.918 264.209 153.555 266.126 150.601C294.01 107.783 322.681 65.865 349.746 22.1326C359.628 6.13581 369.687 0.453739 384.842 1.03844C424.791 2.58264 464.795 1.68311 504.777 1.75807C506.771 1.75807 508.765 1.75807 510.759 1.75807C511.169 2.43272 511.59 3.10737 512 3.78202Z" fill="#0AB7D8"/>
<path d="M180.186 267.304C149.033 211.308 118.534 156.496 87.1049 100.02C90.4395 99.5854 92.2896 99.1356 94.1397 99.1356C119.011 99.0906 143.893 98.9407 168.764 99.3305C171.677 99.3755 175.411 101.339 177.339 104.188C196.515 132.463 215.481 160.994 234.226 189.794C236.409 193.137 237.971 198.504 237.993 202.957C238.248 252.821 238.092 302.701 238.225 352.565C238.237 358.427 237.107 362.88 234.215 367.317C203.938 413.598 173.76 459.985 143.693 506.506C140.857 510.898 137.866 512.473 133.667 512.458C92.2121 512.353 50.7456 512.533 9.29023 512.443C6.28798 512.443 1.65721 515.066 0.782015 508.934C-0.0710224 502.967 -1.16778 496.191 3.19711 490.809C13.2563 478.38 23.1161 465.652 33.0645 453.043C80.6462 392.729 128.217 332.43 175.81 272.146C177.017 270.617 178.369 269.313 180.197 267.304H180.186Z" fill="black"/>
</svg>
